<mxfile host="app.diagrams.net" modified="2022-02-19T15:38:16.083Z" agent="5.0 (Macintosh; Intel Mac OS X 10_15_6) AppleWebKit/605.1.15 (KHTML, like Gecko) Version/14.0.2 Safari/605.1.15" etag="MLuMuJqVJMgK7b4GcXxN" version="16.6.1" type="github" pages="4">
  <diagram id="ebOsDbM9t4nwLKOrqtXK" name="macro-architecture">
    <mxGraphModel dx="1123" dy="779" grid="1" gridSize="10" guides="1" tooltips="1" connect="1" arrows="1" fold="1" page="1" pageScale="1" pageWidth="850" pageHeight="1100" math="0" shadow="0">
      <root>
        <mxCell id="0" />
        <mxCell id="1" parent="0" />
        <mxCell id="_tkKiDltBe5MXPoQpwv0-75" value="Client-Side" style="rounded=1;whiteSpace=wrap;html=1;labelBackgroundColor=none;fontSize=30;fontStyle=1;horizontal=1;verticalAlign=top;fillColor=none;dashed=1;align=left;spacingLeft=20;arcSize=0;strokeColor=#10739e;strokeWidth=4;fontColor=#10739E;spacingTop=5;" parent="1" vertex="1">
          <mxGeometry x="40" y="40" width="320" height="580" as="geometry" />
        </mxCell>
        <mxCell id="_tkKiDltBe5MXPoQpwv0-67" value="Host-Side" style="rounded=1;whiteSpace=wrap;html=1;labelBackgroundColor=none;fontSize=30;fontStyle=1;horizontal=1;verticalAlign=top;fillColor=none;dashed=1;align=left;spacingLeft=20;arcSize=0;strokeColor=#10739e;strokeWidth=4;fontColor=#10739E;spacingTop=5;" parent="1" vertex="1">
          <mxGeometry x="480" y="40" width="1200" height="580" as="geometry" />
        </mxCell>
        <mxCell id="_tkKiDltBe5MXPoQpwv0-65" value="" style="rounded=1;whiteSpace=wrap;html=1;labelBackgroundColor=none;fontSize=21;fontStyle=1;horizontal=0;verticalAlign=top;fillColor=none;dashed=1;align=left;spacingLeft=20;arcSize=12;rotation=-180;" parent="1" vertex="1">
          <mxGeometry x="1460" y="120" width="180" height="460" as="geometry" />
        </mxCell>
        <mxCell id="_tkKiDltBe5MXPoQpwv0-26" value="Order Microservice" style="rounded=1;whiteSpace=wrap;html=1;labelBackgroundColor=none;fontSize=21;fontStyle=1;horizontal=1;verticalAlign=top;fillColor=none;dashed=1;align=left;spacingLeft=20;" parent="1" vertex="1">
          <mxGeometry x="880" y="440" width="520" height="140" as="geometry" />
        </mxCell>
        <mxCell id="_tkKiDltBe5MXPoQpwv0-25" value="Customer Microservice" style="rounded=1;whiteSpace=wrap;html=1;labelBackgroundColor=none;fontSize=21;fontStyle=1;horizontal=1;verticalAlign=top;fillColor=none;dashed=1;align=left;spacingLeft=20;" parent="1" vertex="1">
          <mxGeometry x="880" y="280" width="520" height="140" as="geometry" />
        </mxCell>
        <mxCell id="_tkKiDltBe5MXPoQpwv0-59" style="edgeStyle=none;rounded=0;orthogonalLoop=1;jettySize=auto;html=1;entryX=0.036;entryY=0.196;entryDx=0;entryDy=0;entryPerimeter=0;fontSize=30;fontColor=#BAC8D3;startArrow=none;startFill=0;endArrow=block;endFill=1;" parent="1" source="_tkKiDltBe5MXPoQpwv0-48" target="_tkKiDltBe5MXPoQpwv0-56" edge="1">
          <mxGeometry relative="1" as="geometry" />
        </mxCell>
        <mxCell id="_tkKiDltBe5MXPoQpwv0-48" value="Health Check" style="rounded=1;whiteSpace=wrap;html=1;labelBackgroundColor=none;fontSize=21;fontStyle=1;horizontal=1;verticalAlign=top;fillColor=none;dashed=1;align=center;spacingLeft=0;" parent="1" vertex="1">
          <mxGeometry x="520" y="140" width="200" height="200" as="geometry" />
        </mxCell>
        <mxCell id="_tkKiDltBe5MXPoQpwv0-51" value="API Gateway" style="rounded=1;whiteSpace=wrap;html=1;labelBackgroundColor=none;fontSize=21;fontStyle=1;horizontal=1;verticalAlign=top;fillColor=none;dashed=1;align=center;spacingLeft=0;strokeColor=#BAC8D3;fontColor=#BAC8D3;" parent="1" vertex="1">
          <mxGeometry x="520" y="380" width="200" height="200" as="geometry" />
        </mxCell>
        <mxCell id="_tkKiDltBe5MXPoQpwv0-28" style="edgeStyle=orthogonalEdgeStyle;rounded=0;orthogonalLoop=1;jettySize=auto;html=1;entryX=-0.001;entryY=0.12;entryDx=0;entryDy=0;entryPerimeter=0;fontSize=30;fontColor=#333333;endArrow=block;endFill=1;startArrow=block;startFill=1;" parent="1" source="_tkKiDltBe5MXPoQpwv0-24" target="_tkKiDltBe5MXPoQpwv0-27" edge="1">
          <mxGeometry relative="1" as="geometry" />
        </mxCell>
        <mxCell id="_tkKiDltBe5MXPoQpwv0-24" value="Catalog Microservice" style="rounded=1;whiteSpace=wrap;html=1;labelBackgroundColor=none;fontSize=21;fontStyle=1;horizontal=1;verticalAlign=top;fillColor=none;dashed=1;align=left;spacingLeft=20;" parent="1" vertex="1">
          <mxGeometry x="880" y="120" width="520" height="140" as="geometry" />
        </mxCell>
        <mxCell id="_tkKiDltBe5MXPoQpwv0-7" value="Mongo&lt;br style=&quot;font-size: 15px;&quot;&gt;Database" style="strokeWidth=2;html=1;shape=mxgraph.flowchart.database;whiteSpace=wrap;labelBackgroundColor=none;fontSize=15;fontColor=#000000;fillColor=#e51400;strokeColor=#FFFFFF;align=left;labelPosition=right;verticalLabelPosition=middle;verticalAlign=middle;fontStyle=0;spacingLeft=10;" parent="1" vertex="1">
          <mxGeometry x="1240" y="170" width="60" height="60" as="geometry" />
        </mxCell>
        <mxCell id="_tkKiDltBe5MXPoQpwv0-17" style="edgeStyle=orthogonalEdgeStyle;rounded=0;orthogonalLoop=1;jettySize=auto;html=1;entryX=0;entryY=0.5;entryDx=0;entryDy=0;entryPerimeter=0;fontSize=15;fontColor=#000000;endArrow=block;endFill=1;" parent="1" source="_tkKiDltBe5MXPoQpwv0-8" target="_tkKiDltBe5MXPoQpwv0-7" edge="1">
          <mxGeometry relative="1" as="geometry" />
        </mxCell>
        <mxCell id="_tkKiDltBe5MXPoQpwv0-18" value="Mongo&lt;br style=&quot;font-size: 15px;&quot;&gt;Database" style="strokeWidth=2;html=1;shape=mxgraph.flowchart.database;whiteSpace=wrap;labelBackgroundColor=none;fontSize=15;fontColor=#000000;fillColor=#F0A30A;strokeColor=#FFFFFF;align=left;labelPosition=right;verticalLabelPosition=middle;verticalAlign=middle;fontStyle=0;spacingLeft=10;" parent="1" vertex="1">
          <mxGeometry x="1240" y="330" width="60" height="60" as="geometry" />
        </mxCell>
        <mxCell id="_tkKiDltBe5MXPoQpwv0-19" style="edgeStyle=orthogonalEdgeStyle;rounded=0;orthogonalLoop=1;jettySize=auto;html=1;entryX=0;entryY=0.5;entryDx=0;entryDy=0;entryPerimeter=0;fontSize=15;fontColor=#000000;endArrow=block;endFill=1;" parent="1" source="_tkKiDltBe5MXPoQpwv0-12" target="_tkKiDltBe5MXPoQpwv0-18" edge="1">
          <mxGeometry relative="1" as="geometry" />
        </mxCell>
        <mxCell id="_tkKiDltBe5MXPoQpwv0-20" value="Mongo&lt;br style=&quot;font-size: 15px;&quot;&gt;Database" style="strokeWidth=2;html=1;shape=mxgraph.flowchart.database;whiteSpace=wrap;labelBackgroundColor=none;fontSize=15;fontColor=#000000;fillColor=#60A917;strokeColor=#FFFFFF;align=left;labelPosition=right;verticalLabelPosition=middle;verticalAlign=middle;fontStyle=0;spacingLeft=10;" parent="1" vertex="1">
          <mxGeometry x="1240" y="490" width="60" height="60" as="geometry" />
        </mxCell>
        <mxCell id="_tkKiDltBe5MXPoQpwv0-21" style="edgeStyle=orthogonalEdgeStyle;rounded=0;orthogonalLoop=1;jettySize=auto;html=1;entryX=0;entryY=0.5;entryDx=0;entryDy=0;entryPerimeter=0;fontSize=15;fontColor=#000000;endArrow=block;endFill=1;" parent="1" source="_tkKiDltBe5MXPoQpwv0-15" target="_tkKiDltBe5MXPoQpwv0-20" edge="1">
          <mxGeometry relative="1" as="geometry" />
        </mxCell>
        <mxCell id="_tkKiDltBe5MXPoQpwv0-8" value="Catalog.API" style="rounded=1;whiteSpace=wrap;html=1;labelBackgroundColor=none;fontSize=25;fillColor=#b1ddf0;strokeColor=#10739e;align=left;spacingRight=0;spacingLeft=100;" parent="1" vertex="1">
          <mxGeometry x="920" y="160" width="280" height="80" as="geometry" />
        </mxCell>
        <mxCell id="_tkKiDltBe5MXPoQpwv0-9" value="" style="shape=hexagon;perimeter=hexagonPerimeter2;whiteSpace=wrap;html=1;fixedSize=1;labelBackgroundColor=none;fontSize=20;fontColor=#ffffff;fillColor=#e51400;strokeColor=#B20000;" parent="1" vertex="1">
          <mxGeometry x="940" y="170" width="70" height="60" as="geometry" />
        </mxCell>
        <mxCell id="_tkKiDltBe5MXPoQpwv0-12" value="Customer.API" style="rounded=1;whiteSpace=wrap;html=1;labelBackgroundColor=none;fontSize=25;fillColor=#b1ddf0;strokeColor=#10739e;align=left;spacingRight=0;spacingLeft=100;" parent="1" vertex="1">
          <mxGeometry x="920" y="320" width="280" height="80" as="geometry" />
        </mxCell>
        <mxCell id="_tkKiDltBe5MXPoQpwv0-13" value="" style="shape=hexagon;perimeter=hexagonPerimeter2;whiteSpace=wrap;html=1;fixedSize=1;labelBackgroundColor=none;fontSize=20;fontColor=#000000;fillColor=#f0a30a;strokeColor=#BD7000;" parent="1" vertex="1">
          <mxGeometry x="940" y="330" width="70" height="60" as="geometry" />
        </mxCell>
        <mxCell id="_tkKiDltBe5MXPoQpwv0-15" value="Order.API" style="rounded=1;whiteSpace=wrap;html=1;labelBackgroundColor=none;fontSize=25;fillColor=#b1ddf0;strokeColor=#10739e;align=left;spacingRight=0;spacingLeft=100;" parent="1" vertex="1">
          <mxGeometry x="920" y="480" width="280" height="80" as="geometry" />
        </mxCell>
        <mxCell id="_tkKiDltBe5MXPoQpwv0-16" value="" style="shape=hexagon;perimeter=hexagonPerimeter2;whiteSpace=wrap;html=1;fixedSize=1;labelBackgroundColor=none;fontSize=20;fontColor=#ffffff;fillColor=#60a917;strokeColor=#2D7600;" parent="1" vertex="1">
          <mxGeometry x="940" y="490" width="70" height="60" as="geometry" />
        </mxCell>
        <mxCell id="_tkKiDltBe5MXPoQpwv0-29" style="edgeStyle=orthogonalEdgeStyle;rounded=0;orthogonalLoop=1;jettySize=auto;html=1;entryX=0;entryY=0.5;entryDx=0;entryDy=0;entryPerimeter=0;fontSize=30;fontColor=#333333;endArrow=block;endFill=1;startArrow=block;startFill=1;" parent="1" source="_tkKiDltBe5MXPoQpwv0-25" target="_tkKiDltBe5MXPoQpwv0-27" edge="1">
          <mxGeometry relative="1" as="geometry" />
        </mxCell>
        <mxCell id="_tkKiDltBe5MXPoQpwv0-30" style="edgeStyle=orthogonalEdgeStyle;rounded=0;orthogonalLoop=1;jettySize=auto;html=1;entryX=-0.004;entryY=0.88;entryDx=0;entryDy=0;entryPerimeter=0;fontSize=30;fontColor=#333333;endArrow=block;endFill=1;startArrow=block;startFill=1;" parent="1" source="_tkKiDltBe5MXPoQpwv0-26" target="_tkKiDltBe5MXPoQpwv0-27" edge="1">
          <mxGeometry relative="1" as="geometry" />
        </mxCell>
        <mxCell id="_tkKiDltBe5MXPoQpwv0-27" value="Event Bus" style="shape=cylinder3;whiteSpace=wrap;html=1;boundedLbl=1;backgroundOutline=1;size=15;labelBackgroundColor=none;fontSize=30;strokeColor=#314354;fillColor=#647687;fontStyle=1;horizontal=0;direction=west;flipV=0;fontColor=#ffffff;rotation=-180;" parent="1" vertex="1">
          <mxGeometry x="1480" y="140" width="80" height="420" as="geometry" />
        </mxCell>
        <mxCell id="_tkKiDltBe5MXPoQpwv0-47" value="" style="sketch=0;aspect=fixed;html=1;points=[];align=center;image;fontSize=12;image=img/lib/mscae/Docker.svg;labelBackgroundColor=none;fontColor=#333333;strokeColor=#FFFFFF;strokeWidth=1;fillColor=none;" parent="1" vertex="1">
          <mxGeometry x="1350" y="130" width="40" height="32.8" as="geometry" />
        </mxCell>
        <mxCell id="_tkKiDltBe5MXPoQpwv0-49" value="" style="sketch=0;aspect=fixed;html=1;points=[];align=center;image;fontSize=12;image=img/lib/mscae/Active_Directory_Health_Monitoring.svg;labelBackgroundColor=none;fontColor=#333333;strokeColor=#FFFFFF;strokeWidth=1;fillColor=none;" parent="1" vertex="1">
          <mxGeometry x="560" y="190" width="120" height="120" as="geometry" />
        </mxCell>
        <mxCell id="_tkKiDltBe5MXPoQpwv0-50" value="" style="sketch=0;outlineConnect=0;fillColor=#bac8d3;strokeColor=#23445d;dashed=0;verticalLabelPosition=bottom;verticalAlign=top;align=center;html=1;fontSize=12;fontStyle=0;aspect=fixed;pointerEvents=1;shape=mxgraph.aws4.endpoint;labelBackgroundColor=none;" parent="1" vertex="1">
          <mxGeometry x="560" y="430" width="120" height="120" as="geometry" />
        </mxCell>
        <mxCell id="_tkKiDltBe5MXPoQpwv0-57" style="edgeStyle=none;rounded=0;orthogonalLoop=1;jettySize=auto;html=1;entryX=0;entryY=0.5;entryDx=0;entryDy=0;fontSize=30;fontColor=#BAC8D3;startArrow=none;startFill=0;endArrow=block;endFill=1;exitX=1;exitY=0.5;exitDx=0;exitDy=0;" parent="1" source="_tkKiDltBe5MXPoQpwv0-56" target="_tkKiDltBe5MXPoQpwv0-13" edge="1">
          <mxGeometry relative="1" as="geometry" />
        </mxCell>
        <mxCell id="_tkKiDltBe5MXPoQpwv0-58" style="edgeStyle=none;rounded=0;orthogonalLoop=1;jettySize=auto;html=1;exitX=1;exitY=0.9;exitDx=0;exitDy=0;entryX=0;entryY=0.5;entryDx=0;entryDy=0;fontSize=30;fontColor=#BAC8D3;startArrow=none;startFill=0;endArrow=block;endFill=1;exitPerimeter=0;" parent="1" source="_tkKiDltBe5MXPoQpwv0-56" target="_tkKiDltBe5MXPoQpwv0-16" edge="1">
          <mxGeometry relative="1" as="geometry" />
        </mxCell>
        <mxCell id="_tkKiDltBe5MXPoQpwv0-56" value="" style="rounded=0;whiteSpace=wrap;html=1;labelBackgroundColor=none;fontSize=30;fontColor=#ffffff;strokeColor=#314354;strokeWidth=1;fillColor=#333333;" parent="1" vertex="1">
          <mxGeometry x="800" y="160" width="10" height="400" as="geometry" />
        </mxCell>
        <mxCell id="_tkKiDltBe5MXPoQpwv0-60" value="" style="sketch=0;aspect=fixed;html=1;points=[];align=center;image;fontSize=12;image=img/lib/mscae/Docker.svg;labelBackgroundColor=none;fontColor=#333333;strokeColor=#FFFFFF;strokeWidth=1;fillColor=none;" parent="1" vertex="1">
          <mxGeometry x="1350" y="290" width="40" height="32.8" as="geometry" />
        </mxCell>
        <mxCell id="_tkKiDltBe5MXPoQpwv0-61" value="" style="sketch=0;aspect=fixed;html=1;points=[];align=center;image;fontSize=12;image=img/lib/mscae/Docker.svg;labelBackgroundColor=none;fontColor=#333333;strokeColor=#FFFFFF;strokeWidth=1;fillColor=none;" parent="1" vertex="1">
          <mxGeometry x="1350" y="450" width="40" height="32.8" as="geometry" />
        </mxCell>
        <mxCell id="_tkKiDltBe5MXPoQpwv0-62" value="" style="sketch=0;aspect=fixed;html=1;points=[];align=center;image;fontSize=12;image=img/lib/mscae/Docker.svg;labelBackgroundColor=none;fontColor=#333333;strokeColor=#FFFFFF;strokeWidth=1;fillColor=none;" parent="1" vertex="1">
          <mxGeometry x="670" y="300" width="40" height="32.8" as="geometry" />
        </mxCell>
        <mxCell id="_tkKiDltBe5MXPoQpwv0-53" style="edgeStyle=none;rounded=0;orthogonalLoop=1;jettySize=auto;html=1;entryX=0;entryY=0.5;entryDx=0;entryDy=0;fontSize=30;fontColor=#BAC8D3;startArrow=none;startFill=0;endArrow=block;endFill=1;exitX=0.983;exitY=0.1;exitDx=0;exitDy=0;exitPerimeter=0;" parent="1" source="_tkKiDltBe5MXPoQpwv0-56" target="_tkKiDltBe5MXPoQpwv0-9" edge="1">
          <mxGeometry relative="1" as="geometry">
            <mxPoint x="810" y="190" as="sourcePoint" />
          </mxGeometry>
        </mxCell>
        <mxCell id="_tkKiDltBe5MXPoQpwv0-64" value="RabbitMQ" style="shape=image;verticalLabelPosition=bottom;labelBackgroundColor=default;verticalAlign=top;aspect=fixed;imageAspect=0;image=data:image/png,iVBORw0KGgoAAAANSUhEUgAAANQAAADuCAMAAAB24dnhAAAAkFBMVEX3YwD////2VAD3WwD/+PL+8ur7s5n3WAD+9vP3YAD3WgD91sX2UwD+9O76nXf3ZQD94tb+7OP//Pn8wqn93c77tJX8yrT928v6qYX5jlz80b7+6N37uJv7sI36onv4dzL5l2r8zrr4gkj5kWH4ezv6p4L4byH3axT4di34gEP6oXr5iVP7war4bxj93tT6rZD4Ml2PAAAIp0lEQVR4nO2dWZujKhBAI7RDYxaX7Pue9Exmpv//v7uYznSiYsSSiuL1vMxLvpYzAVIlULSsGtIquwEYNFKm8BKpwBv1f0wmP/ojL3jF8/ClBscPyphDBQ5j9OM4QH8kspQ9cQnlrQc4JeeJjftUVKluj0WN/nmxX13M5yJKBUdCk0ZfUHJEHF14Un2eqnTV4n20R2NJDdbsmVIIW2NNGThS9rQjGUuJsdWZ4swYGFLBkikoXbXYEmNoIUiNWo6aUojTGulvgXYpb03UlULI2tPdBs1S3Q1R7Hl3ONlo/tXSKzVkT6fxNCgbam2GTqmRmzmNp8HcrcaG6JPyfubveXc42821NUWXFGQwxbRI711TYzRJDSloMEWhdKGnNVqkZmfwYIrCTm0d7dEg5RcaTFE42fkVkHr7pU/pS2tVOHIqKpWRYEAonpQUkxqfNA2mKOw0Lk3Kn+rteXc42ReJnOBSwUQ1wYBQKHICS/3WP5iiFIicgFKDQ84EA4CY3oGRE0iqu8caTHGtDShygkgBEwwIsMgpv9TWzZGtFwcSOeWVmh9e0/PuACKnfFJvvVcrfWmt3vCkFjoSDAg5I6ccUm1dCQaEXJGTspR/KaPn3eFkqjy0FKWCFWZMpKjFJlql+mUNpiiqQ0tFavBR4mCKorZSki1loyUYEJSSkiypYFklpRCFlZIMqdFrYyI1nKyk5KmUdyh/zpPByeHpSskTqe5GZTmwHHjn2UpJupSWl654UJqe76dJzeArGK+CubNcUvNd1eY8Gan5vkwq6FVzfkjCWU82vUuk+k6lB1MU6kgip4TUAOelKx7slIic4lIrEwZTFE5+PZXyXIN63h3qeulSM1MmiDiczdKk+p2yGwen05dL/TbYKWp1lxrjvx1HhbSTUr5hM3kS5iek1obOEXf4R1xqYfwXJb6qYVTK/M4XwuYRqb3xnS+ETx+lfKNn8zud+YNUPb6o76/qKmUb/hN1h9jfUv0KvgeD4Sy+pX4W2X3oMHKFOel/hVP29SkmPfyhD374J9WF9z7qbH635+/v7/583N8z+TfOO4fhdmCLT9mD7XCH+uLt2v9CqRl862vsNZX0J5ztowtL9h7xR/Gag4RSQ2hmyBKre7Pkl+4c4x+yenipKF3epKbA/nD9A1nt5afkhyy8iYlfblJ/gFJM8ubXi3ctKlsn26ANK+7epIBP4GtJc4P4HyOyV/kLxP53kwJOfnwvaa71EbMisi0QI7ypovMlFQADP5qcAQS7mBSTfQg+32ZCulepN+A3RT9l7Y2HkVKpNqKUXUzqh6y98TmgFlK9WkrFJrZGSgONVJJGqpEqQiOVpJFqpIrQSCVppBqpIjRSSRqpRqoIjVSSRqpeUk4dpXgdpCZRKX6WfWhsmFRsBY/vZB8aGCbVjv41Kj2dZuNtRkGRss6R985Evh3+jLbqhiPlu987cTntpJy3G6Et0eNIWUH/4nbCTRN0fUwtU9C+3LZffO2uEDjOtQIqv1I5qStdO7v8TNe27bnA+/v3b3vb7/cXw89VbzO97NYcvO8aU6ogwWwNXMGvsJRgBbOqtpR1AvXAikvB9iVUXAoWdlRcCra1suJSXdBM0UiVIFXHMdVINVKNVCPVSNVHqpY/vrWUqmPqUUupN/Okgu1weWWRVg7OPKkZZ/QG+ZDf7vFm2juKwWPZC+5KCy0aJxU9PCFfRTBNKnEEtw5S8ZVEIntH3UgZIwVqVYWkZB8KGqlGqpFSxYs+Ur7ZwjQpy41GFCuplGuY1PYxpOAtaexnnJS16NzW4TllZ/kavnlSlj/ZX6aCSy/tpjoDpbKpp9S5hlJWI9VIlSdVyzFVT6laTum1lAK1quJSpr14+f9K1XIpp5w1X2nhGn34RbbGgUsMSZNwfcAOhNxKDFlAqX9lN7GAVYy6FYPSWrZLIxPQRMFuUtCDF7ICaxqB1Yf8V2DtAi2Fp+miZDmwMrLXo02h1BJaw41quFA4lQPov/q6KFmovCRvabn9Wcb8J+x/mm1vUgXK0JLzZNT2/HeN+F57dPyA3u9AfKt4yVZOnYczQ3pgDriu671ka42K69J7cV1YlFVFHsog17JgdT1Li1sbI29eiRMtAl/Pcv21vFgBGpVUiXvW8C1lPyl3bgaSy0owD+m/BHLf4fmwKW1r9LzeeVhlfdxpNzL4fgWSclWTZY1xLwjAg9NIDhTdE+mfjAxtndimhfhGz4mJF9XFy4Endq961blmWQ2FKwWtylyIrYba5Y9WNa4uV0P9mk6r/Evm1ch1oWpI+1z5oZX36tuQRbWHFuSSYkG3V7/rpK3wjWI1h1aBi79DtlUcWsWuaA8ZsooNLc6WWdWLMqWs7r5KfZCTffYCUraUiJwOlclJ2DoREwGlRKbFK9EHKU8pbQaSEtF7+ZETZ9IDcQWkLLvkocXJVHmJT1lK5MVl3nPOTmknZ4tJiaSkrKGlOpggUlZwLKMPitRWem5Ck5RISnav1hIJRt718rxSIil57dBip/yL5fmlXpqUUNBeDYiU9dZ7TR/kZPMOaR9ISiQlLxhaqdk6lpRISlzkocWyEgwEKeSkhMbvan2RlNXdYPVBpQQDR0okJWuUpCRXTKRdSiQlLe1LCjljIgQpK1jqTUpETJRdaxhbSiQlU31DCxAT4UhZ1mCtaXqHxEQStEhpSkpgMZEETVIakhJOeqCYSIIuqaIrJfCYSII+KZGUwCOnAjGRBJ1S4MipUEwkQa8UKHISCYbmXfuapa6RUy4tTtZPVzAgaJcSkZObI3Jy3LQiBwVAkLIs5ciJsyXG81GkROSksgjJO1N5Ebyi4EgpRU5qKxgQsKQyI6fiCUY6eFJh5JSqRTUkGOkgSolfrZX01Aanzgr1PBmqlNBa/iFRL07JnyXuETlsKYE3OVDGwrKfTvjPYaL9tzYBvlTIfDxafH4uRmN9kfgzXiP1YhopU6il1H+Hi68lxYaT0AAAAABJRU5ErkJggg==;" parent="1" vertex="1">
          <mxGeometry x="1580" y="190" width="50" height="56.13" as="geometry" />
        </mxCell>
        <mxCell id="_tkKiDltBe5MXPoQpwv0-66" value="" style="sketch=0;aspect=fixed;html=1;points=[];align=center;image;fontSize=12;image=img/lib/mscae/Docker.svg;labelBackgroundColor=none;fontColor=#333333;strokeColor=#FFFFFF;strokeWidth=1;fillColor=none;" parent="1" vertex="1">
          <mxGeometry x="1580" y="130" width="50" height="41" as="geometry" />
        </mxCell>
        <mxCell id="_tkKiDltBe5MXPoQpwv0-76" style="edgeStyle=none;rounded=0;orthogonalLoop=1;jettySize=auto;html=1;exitX=1;exitY=0.25;exitDx=0;exitDy=0;exitPerimeter=0;entryX=0;entryY=0.599;entryDx=0;entryDy=0;entryPerimeter=0;fontSize=30;fontColor=#10739E;startArrow=none;startFill=0;endArrow=block;endFill=1;" parent="1" source="_tkKiDltBe5MXPoQpwv0-69" target="_tkKiDltBe5MXPoQpwv0-72" edge="1">
          <mxGeometry relative="1" as="geometry" />
        </mxCell>
        <object placeholders="1" c4Type="Web Browser" c4Container="Container" c4Technology="Browser" c4Description="" label="&lt;font style=&quot;font-size: 16px&quot;&gt;&lt;b&gt;%c4Type%&lt;/font&gt;&lt;div&gt;[%c4Container%:&amp;nbsp;%c4Technology%]&lt;/div&gt;&lt;br&gt;&lt;div&gt;&lt;font style=&quot;font-size: 11px&quot;&gt;&lt;font color=&quot;#E6E6E6&quot;&gt;%c4Description%&lt;/font&gt;&lt;/div&gt;" id="_tkKiDltBe5MXPoQpwv0-69">
          <mxCell style="shape=mxgraph.c4.webBrowserContainer;whiteSpace=wrap;html=1;boundedLbl=1;rounded=0;labelBackgroundColor=none;fillColor=#118ACD;fontSize=12;fontColor=#ffffff;align=center;strokeColor=#0E7DAD;metaEdit=1;points=[[0.5,0,0],[1,0.25,0],[1,0.5,0],[1,0.75,0],[0.5,1,0],[0,0.75,0],[0,0.5,0],[0,0.25,0]];resizable=0;" parent="1" vertex="1">
            <mxGeometry x="79" y="360" width="240" height="160" as="geometry" />
          </mxCell>
        </object>
        <mxCell id="_tkKiDltBe5MXPoQpwv0-71" style="edgeStyle=none;rounded=0;orthogonalLoop=1;jettySize=auto;html=1;entryX=0.5;entryY=0;entryDx=0;entryDy=0;entryPerimeter=0;fontSize=30;fontColor=#10739E;startArrow=none;startFill=0;endArrow=block;endFill=1;" parent="1" source="_tkKiDltBe5MXPoQpwv0-70" target="_tkKiDltBe5MXPoQpwv0-69" edge="1">
          <mxGeometry relative="1" as="geometry" />
        </mxCell>
        <mxCell id="_tkKiDltBe5MXPoQpwv0-70" value="" style="fillColor=#28A8E0;verticalLabelPosition=bottom;sketch=0;html=1;strokeColor=#ffffff;verticalAlign=top;align=center;points=[[0.145,0.145,0],[0.5,0,0],[0.855,0.145,0],[1,0.5,0],[0.855,0.855,0],[0.5,1,0],[0.145,0.855,0],[0,0.5,0]];pointerEvents=1;shape=mxgraph.cisco_safe.compositeIcon;bgIcon=ellipse;resIcon=mxgraph.cisco_safe.capability.user;labelBackgroundColor=none;fontSize=30;fontColor=#10739E;aspect=fixed;" parent="1" vertex="1">
          <mxGeometry x="119" y="119" width="161" height="161" as="geometry" />
        </mxCell>
        <mxCell id="_tkKiDltBe5MXPoQpwv0-73" style="edgeStyle=none;rounded=0;orthogonalLoop=1;jettySize=auto;html=1;entryX=0;entryY=0.417;entryDx=0;entryDy=0;entryPerimeter=0;fontSize=30;fontColor=#10739E;startArrow=none;startFill=0;endArrow=block;endFill=1;exitX=1;exitY=0.2;exitDx=0;exitDy=0;exitPerimeter=0;" parent="1" source="_tkKiDltBe5MXPoQpwv0-72" target="_tkKiDltBe5MXPoQpwv0-49" edge="1">
          <mxGeometry relative="1" as="geometry">
            <mxPoint x="440" y="239" as="sourcePoint" />
          </mxGeometry>
        </mxCell>
        <mxCell id="_tkKiDltBe5MXPoQpwv0-74" style="edgeStyle=none;rounded=0;orthogonalLoop=1;jettySize=auto;html=1;entryX=-0.018;entryY=0.699;entryDx=0;entryDy=0;fontSize=30;fontColor=#10739E;startArrow=none;startFill=0;endArrow=block;endFill=1;exitX=0.905;exitY=0.7;exitDx=0;exitDy=0;exitPerimeter=0;entryPerimeter=0;" parent="1" source="_tkKiDltBe5MXPoQpwv0-72" target="_tkKiDltBe5MXPoQpwv0-56" edge="1">
          <mxGeometry relative="1" as="geometry" />
        </mxCell>
        <mxCell id="_tkKiDltBe5MXPoQpwv0-72" value="" style="rounded=0;whiteSpace=wrap;html=1;labelBackgroundColor=none;fontSize=30;fontColor=#ffffff;strokeColor=#314354;strokeWidth=1;fillColor=#333333;" parent="1" vertex="1">
          <mxGeometry x="400" y="160" width="10" height="400" as="geometry" />
        </mxCell>
        <mxCell id="zvJyNd9OsVEegfv6ZiKw-1" value="" style="shape=message;html=1;whiteSpace=wrap;html=1;outlineConnect=0;rounded=0;fontSize=12;strokeWidth=2;" vertex="1" parent="1">
          <mxGeometry x="1425" y="499.8" width="30" height="20" as="geometry" />
        </mxCell>
        <mxCell id="zvJyNd9OsVEegfv6ZiKw-2" value="" style="shape=message;html=1;whiteSpace=wrap;html=1;outlineConnect=0;rounded=0;fontSize=12;strokeWidth=2;" vertex="1" parent="1">
          <mxGeometry x="1425" y="339.8" width="30" height="20" as="geometry" />
        </mxCell>
        <mxCell id="zvJyNd9OsVEegfv6ZiKw-3" value="" style="shape=message;html=1;whiteSpace=wrap;html=1;outlineConnect=0;rounded=0;fontSize=12;strokeWidth=2;" vertex="1" parent="1">
          <mxGeometry x="1425" y="179.8" width="30" height="20" as="geometry" />
        </mxCell>
      </root>
    </mxGraphModel>
  </diagram>
  <diagram id="dZSOQKvUAp4Jsk5OK4NO" name="catalog-events-diagram">
    <mxGraphModel dx="897" dy="1211" grid="1" gridSize="10" guides="1" tooltips="1" connect="1" arrows="1" fold="1" page="1" pageScale="1" pageWidth="850" pageHeight="1100" math="0" shadow="0">
      <root>
        <mxCell id="RIE_LA6kdXeIpZ0Pgtu8-0" />
        <mxCell id="RIE_LA6kdXeIpZ0Pgtu8-1" parent="RIE_LA6kdXeIpZ0Pgtu8-0" />
        <mxCell id="2ZYjjL6kNhcPRWoFBj0M-19" value="Publisher Microservice" style="rounded=1;whiteSpace=wrap;html=1;fontSize=25;strokeWidth=1;dashed=1;verticalAlign=top;spacingTop=10;arcSize=4;fillColor=#f5f5f5;fontStyle=1;fontColor=#333333;strokeColor=#666666;" vertex="1" parent="RIE_LA6kdXeIpZ0Pgtu8-1">
          <mxGeometry x="920" y="80" width="400" height="560" as="geometry" />
        </mxCell>
        <mxCell id="2ZYjjL6kNhcPRWoFBj0M-24" value="Consumer Microservice" style="rounded=1;whiteSpace=wrap;html=1;fontSize=25;strokeWidth=1;dashed=1;verticalAlign=top;spacingTop=10;arcSize=4;fillColor=#f5f5f5;fontStyle=1;fontColor=#333333;strokeColor=#666666;" vertex="1" parent="RIE_LA6kdXeIpZ0Pgtu8-1">
          <mxGeometry x="2840" y="80" width="400" height="560" as="geometry" />
        </mxCell>
        <mxCell id="2ZYjjL6kNhcPRWoFBj0M-3" value="Message" style="rounded=1;whiteSpace=wrap;html=1;fontSize=25;strokeWidth=1;dashed=1;verticalAlign=top;spacingTop=10;arcSize=4;fillColor=#dae8fc;fontStyle=1;strokeColor=#6c8ebf;opacity=50;" vertex="1" parent="RIE_LA6kdXeIpZ0Pgtu8-1">
          <mxGeometry x="1360" y="80" width="240" height="560" as="geometry" />
        </mxCell>
        <mxCell id="2ZYjjL6kNhcPRWoFBj0M-21" value="Secondary Exchange" style="rounded=1;whiteSpace=wrap;html=1;fontSize=25;strokeWidth=1;dashed=1;verticalAlign=top;spacingTop=10;arcSize=4;fillColor=#ffe6cc;fontStyle=1;strokeColor=#d79b00;opacity=50;" vertex="1" parent="RIE_LA6kdXeIpZ0Pgtu8-1">
          <mxGeometry x="2080" y="80" width="320" height="560" as="geometry" />
        </mxCell>
        <mxCell id="2ZYjjL6kNhcPRWoFBj0M-20" value="Primary Exchange" style="rounded=1;whiteSpace=wrap;html=1;fontSize=25;strokeWidth=1;dashed=1;verticalAlign=top;spacingTop=10;arcSize=4;fillColor=#fff2cc;fontStyle=1;strokeColor=#d6b656;opacity=50;" vertex="1" parent="RIE_LA6kdXeIpZ0Pgtu8-1">
          <mxGeometry x="1640" y="80" width="400" height="560" as="geometry" />
        </mxCell>
        <mxCell id="2ZYjjL6kNhcPRWoFBj0M-22" value="Destination Queue" style="rounded=1;whiteSpace=wrap;html=1;fontSize=25;strokeWidth=1;dashed=1;verticalAlign=top;spacingTop=10;arcSize=4;fillColor=#d5e8d4;fontStyle=1;strokeColor=#82b366;opacity=50;" vertex="1" parent="RIE_LA6kdXeIpZ0Pgtu8-1">
          <mxGeometry x="2440" y="80" width="360" height="560" as="geometry" />
        </mxCell>
        <mxCell id="VqVa07PzN7PPsofC3H8l-8" value="CatalogItemCreated" style="shape=document;whiteSpace=wrap;html=1;boundedLbl=1;spacingTop=10;fontSize=14;fontStyle=1" vertex="1" parent="RIE_LA6kdXeIpZ0Pgtu8-1">
          <mxGeometry x="1400" y="160" width="160" height="80" as="geometry" />
        </mxCell>
        <mxCell id="VqVa07PzN7PPsofC3H8l-9" value="CatalogItemUpdated" style="shape=document;whiteSpace=wrap;html=1;boundedLbl=1;spacingTop=10;fontSize=14;fontStyle=1" vertex="1" parent="RIE_LA6kdXeIpZ0Pgtu8-1">
          <mxGeometry x="1400" y="280" width="160" height="80" as="geometry" />
        </mxCell>
        <mxCell id="VqVa07PzN7PPsofC3H8l-10" value="CatalogItemDeleted" style="shape=document;whiteSpace=wrap;html=1;boundedLbl=1;spacingTop=10;fontSize=14;fontStyle=1" vertex="1" parent="RIE_LA6kdXeIpZ0Pgtu8-1">
          <mxGeometry x="1400" y="400" width="160" height="80" as="geometry" />
        </mxCell>
        <mxCell id="VqVa07PzN7PPsofC3H8l-13" value="&lt;p style=&quot;margin: 0px; font-stretch: normal; font-size: 14px; line-height: normal; font-family: &amp;quot;helvetica neue light&amp;quot;;&quot;&gt;MSPOC.Events.Catalog:CatalogItemCreated&lt;/p&gt;" style="shape=hexagon;perimeter=hexagonPerimeter2;whiteSpace=wrap;html=1;fixedSize=1;fontSize=14;fontStyle=1" vertex="1" parent="RIE_LA6kdXeIpZ0Pgtu8-1">
          <mxGeometry x="1680" y="160" width="320" height="80" as="geometry" />
        </mxCell>
        <mxCell id="VqVa07PzN7PPsofC3H8l-22" style="edgeStyle=orthogonalEdgeStyle;rounded=0;orthogonalLoop=1;jettySize=auto;html=1;entryX=0;entryY=0.5;entryDx=0;entryDy=0;fontSize=14;" edge="1" parent="RIE_LA6kdXeIpZ0Pgtu8-1" source="VqVa07PzN7PPsofC3H8l-8" target="VqVa07PzN7PPsofC3H8l-13">
          <mxGeometry relative="1" as="geometry" />
        </mxCell>
        <mxCell id="2tNovQYRleeESs8cYD9x-65" style="edgeStyle=none;rounded=0;orthogonalLoop=1;jettySize=auto;html=1;entryX=0;entryY=0.5;entryDx=0;entryDy=0;fontSize=20;endArrow=block;endFill=1;" edge="1" parent="RIE_LA6kdXeIpZ0Pgtu8-1" source="VqVa07PzN7PPsofC3H8l-14" target="VqVa07PzN7PPsofC3H8l-17">
          <mxGeometry relative="1" as="geometry" />
        </mxCell>
        <mxCell id="VqVa07PzN7PPsofC3H8l-14" value="&lt;p style=&quot;margin: 0px ; font-stretch: normal ; font-size: 14px ; line-height: normal ; font-family: &amp;#34;helvetica neue light&amp;#34;&quot;&gt;MSPOC.Events.Catalog:CatalogItemUpdated&lt;/p&gt;" style="shape=hexagon;perimeter=hexagonPerimeter2;whiteSpace=wrap;html=1;fixedSize=1;fontSize=14;fontStyle=1" vertex="1" parent="RIE_LA6kdXeIpZ0Pgtu8-1">
          <mxGeometry x="1680" y="280" width="320" height="80" as="geometry" />
        </mxCell>
        <mxCell id="VqVa07PzN7PPsofC3H8l-25" style="edgeStyle=orthogonalEdgeStyle;rounded=0;orthogonalLoop=1;jettySize=auto;html=1;entryX=0;entryY=0.5;entryDx=0;entryDy=0;fontSize=14;" edge="1" parent="RIE_LA6kdXeIpZ0Pgtu8-1" source="VqVa07PzN7PPsofC3H8l-9" target="VqVa07PzN7PPsofC3H8l-14">
          <mxGeometry relative="1" as="geometry" />
        </mxCell>
        <mxCell id="VqVa07PzN7PPsofC3H8l-15" value="&lt;p style=&quot;margin: 0px; font-stretch: normal; font-size: 14px; line-height: normal; font-family: &amp;quot;helvetica neue light&amp;quot;;&quot;&gt;MSPOC.Events.Catalog:CatalogItemDeleted&lt;/p&gt;" style="shape=hexagon;perimeter=hexagonPerimeter2;whiteSpace=wrap;html=1;fixedSize=1;fontSize=14;fontStyle=1" vertex="1" parent="RIE_LA6kdXeIpZ0Pgtu8-1">
          <mxGeometry x="1680" y="400" width="320" height="80" as="geometry" />
        </mxCell>
        <mxCell id="VqVa07PzN7PPsofC3H8l-26" style="edgeStyle=orthogonalEdgeStyle;rounded=0;orthogonalLoop=1;jettySize=auto;html=1;entryX=0;entryY=0.5;entryDx=0;entryDy=0;fontSize=14;" edge="1" parent="RIE_LA6kdXeIpZ0Pgtu8-1" source="VqVa07PzN7PPsofC3H8l-10" target="VqVa07PzN7PPsofC3H8l-15">
          <mxGeometry relative="1" as="geometry" />
        </mxCell>
        <mxCell id="VqVa07PzN7PPsofC3H8l-16" value="&lt;p style=&quot;margin: 0px; font-stretch: normal; font-size: 14px; line-height: normal; font-family: &amp;quot;helvetica neue light&amp;quot;;&quot;&gt;order-catalog-item-created&lt;/p&gt;" style="shape=hexagon;perimeter=hexagonPerimeter2;whiteSpace=wrap;html=1;fixedSize=1;fontSize=14;fontStyle=1" vertex="1" parent="RIE_LA6kdXeIpZ0Pgtu8-1">
          <mxGeometry x="2120" y="160" width="240" height="80" as="geometry" />
        </mxCell>
        <mxCell id="VqVa07PzN7PPsofC3H8l-23" style="edgeStyle=orthogonalEdgeStyle;rounded=0;orthogonalLoop=1;jettySize=auto;html=1;entryX=0;entryY=0.5;entryDx=0;entryDy=0;fontSize=14;" edge="1" parent="RIE_LA6kdXeIpZ0Pgtu8-1" source="VqVa07PzN7PPsofC3H8l-13" target="VqVa07PzN7PPsofC3H8l-16">
          <mxGeometry relative="1" as="geometry" />
        </mxCell>
        <mxCell id="VqVa07PzN7PPsofC3H8l-17" value="&lt;p style=&quot;margin: 0px; font-stretch: normal; font-size: 14px; line-height: normal; font-family: &amp;quot;helvetica neue light&amp;quot;;&quot;&gt;order-catalog-item-updated&lt;/p&gt;" style="shape=hexagon;perimeter=hexagonPerimeter2;whiteSpace=wrap;html=1;fixedSize=1;fontSize=14;fontStyle=1" vertex="1" parent="RIE_LA6kdXeIpZ0Pgtu8-1">
          <mxGeometry x="2120" y="280" width="240" height="80" as="geometry" />
        </mxCell>
        <mxCell id="VqVa07PzN7PPsofC3H8l-18" value="&lt;p style=&quot;margin: 0px; font-stretch: normal; font-size: 14px; line-height: normal; font-family: &amp;quot;helvetica neue light&amp;quot;;&quot;&gt;order-catalog-item-deleted&lt;/p&gt;" style="shape=hexagon;perimeter=hexagonPerimeter2;whiteSpace=wrap;html=1;fixedSize=1;fontSize=14;fontStyle=1" vertex="1" parent="RIE_LA6kdXeIpZ0Pgtu8-1">
          <mxGeometry x="2120" y="400" width="240" height="80" as="geometry" />
        </mxCell>
        <mxCell id="VqVa07PzN7PPsofC3H8l-27" style="edgeStyle=orthogonalEdgeStyle;rounded=0;orthogonalLoop=1;jettySize=auto;html=1;entryX=0;entryY=0.5;entryDx=0;entryDy=0;fontSize=14;" edge="1" parent="RIE_LA6kdXeIpZ0Pgtu8-1" source="VqVa07PzN7PPsofC3H8l-15" target="VqVa07PzN7PPsofC3H8l-18">
          <mxGeometry relative="1" as="geometry" />
        </mxCell>
        <mxCell id="VqVa07PzN7PPsofC3H8l-37" value="" style="group" vertex="1" connectable="0" parent="RIE_LA6kdXeIpZ0Pgtu8-1">
          <mxGeometry x="2480" y="280" width="285" height="80" as="geometry" />
        </mxCell>
        <mxCell id="VqVa07PzN7PPsofC3H8l-30" value="&lt;span style=&quot;color: rgb(0, 0, 0); font-family: &amp;quot;helvetica neue light&amp;quot;; font-size: 14px; font-style: normal; font-weight: bold; letter-spacing: normal; text-indent: 0px; text-transform: none; word-spacing: 0px; background-color: rgb(248, 249, 250); text-decoration: none; display: inline; float: none;&quot;&gt;order-catalog-item-updated&lt;/span&gt;" style="rounded=1;whiteSpace=wrap;html=1;fontSize=14;align=left;spacingLeft=20;" vertex="1" parent="VqVa07PzN7PPsofC3H8l-37">
          <mxGeometry width="280" height="80" as="geometry" />
        </mxCell>
        <mxCell id="VqVa07PzN7PPsofC3H8l-36" value="" style="group" vertex="1" connectable="0" parent="VqVa07PzN7PPsofC3H8l-37">
          <mxGeometry x="230" y="15" width="55" height="54.5" as="geometry" />
        </mxCell>
        <mxCell id="VqVa07PzN7PPsofC3H8l-31" value="" style="rounded=0;whiteSpace=wrap;html=1;fontSize=14;strokeWidth=2;" vertex="1" parent="VqVa07PzN7PPsofC3H8l-36">
          <mxGeometry width="40" height="10" as="geometry" />
        </mxCell>
        <mxCell id="VqVa07PzN7PPsofC3H8l-32" value="" style="rounded=0;whiteSpace=wrap;html=1;fontSize=14;strokeWidth=2;" vertex="1" parent="VqVa07PzN7PPsofC3H8l-36">
          <mxGeometry y="26" width="40" height="10" as="geometry" />
        </mxCell>
        <mxCell id="VqVa07PzN7PPsofC3H8l-33" value="" style="rounded=0;whiteSpace=wrap;html=1;fontSize=14;strokeWidth=2;" vertex="1" parent="VqVa07PzN7PPsofC3H8l-36">
          <mxGeometry y="39" width="40" height="10" as="geometry" />
        </mxCell>
        <mxCell id="VqVa07PzN7PPsofC3H8l-34" value="" style="rounded=0;whiteSpace=wrap;html=1;fontSize=14;strokeWidth=2;" vertex="1" parent="VqVa07PzN7PPsofC3H8l-36">
          <mxGeometry y="13" width="40" height="10" as="geometry" />
        </mxCell>
        <mxCell id="VqVa07PzN7PPsofC3H8l-125" style="edgeStyle=orthogonalEdgeStyle;rounded=0;orthogonalLoop=1;jettySize=auto;html=1;entryX=0;entryY=0.5;entryDx=0;entryDy=0;fontSize=14;endArrow=block;endFill=1;" edge="1" parent="RIE_LA6kdXeIpZ0Pgtu8-1" source="VqVa07PzN7PPsofC3H8l-17" target="VqVa07PzN7PPsofC3H8l-30">
          <mxGeometry relative="1" as="geometry" />
        </mxCell>
        <mxCell id="VqVa07PzN7PPsofC3H8l-38" value="" style="group" vertex="1" connectable="0" parent="RIE_LA6kdXeIpZ0Pgtu8-1">
          <mxGeometry x="2480" y="160" width="280" height="80" as="geometry" />
        </mxCell>
        <mxCell id="VqVa07PzN7PPsofC3H8l-39" value="&lt;span style=&quot;color: rgb(0 , 0 , 0) ; font-family: &amp;#34;helvetica neue light&amp;#34; ; font-size: 14px ; font-style: normal ; font-weight: bold ; letter-spacing: normal ; text-indent: 0px ; text-transform: none ; word-spacing: 0px ; background-color: rgb(248 , 249 , 250) ; text-decoration: none ; display: inline ; float: none&quot;&gt;order-catalog-item-created&lt;/span&gt;" style="rounded=1;whiteSpace=wrap;html=1;fontSize=14;align=left;spacingLeft=20;" vertex="1" parent="VqVa07PzN7PPsofC3H8l-38">
          <mxGeometry width="280" height="80" as="geometry" />
        </mxCell>
        <mxCell id="VqVa07PzN7PPsofC3H8l-40" value="" style="group" vertex="1" connectable="0" parent="VqVa07PzN7PPsofC3H8l-38">
          <mxGeometry x="230" y="15" width="40" height="49" as="geometry" />
        </mxCell>
        <mxCell id="VqVa07PzN7PPsofC3H8l-41" value="" style="rounded=0;whiteSpace=wrap;html=1;fontSize=14;strokeWidth=2;" vertex="1" parent="VqVa07PzN7PPsofC3H8l-40">
          <mxGeometry width="40" height="10" as="geometry" />
        </mxCell>
        <mxCell id="VqVa07PzN7PPsofC3H8l-42" value="" style="rounded=0;whiteSpace=wrap;html=1;fontSize=14;strokeWidth=2;" vertex="1" parent="VqVa07PzN7PPsofC3H8l-40">
          <mxGeometry y="26" width="40" height="10" as="geometry" />
        </mxCell>
        <mxCell id="VqVa07PzN7PPsofC3H8l-43" value="" style="rounded=0;whiteSpace=wrap;html=1;fontSize=14;strokeWidth=2;" vertex="1" parent="VqVa07PzN7PPsofC3H8l-40">
          <mxGeometry y="39" width="40" height="10" as="geometry" />
        </mxCell>
        <mxCell id="VqVa07PzN7PPsofC3H8l-44" value="" style="rounded=0;whiteSpace=wrap;html=1;fontSize=14;strokeWidth=2;" vertex="1" parent="VqVa07PzN7PPsofC3H8l-40">
          <mxGeometry y="13" width="40" height="10" as="geometry" />
        </mxCell>
        <mxCell id="VqVa07PzN7PPsofC3H8l-126" style="edgeStyle=orthogonalEdgeStyle;rounded=0;orthogonalLoop=1;jettySize=auto;html=1;entryX=0;entryY=0.5;entryDx=0;entryDy=0;fontSize=14;endArrow=block;endFill=1;" edge="1" parent="RIE_LA6kdXeIpZ0Pgtu8-1" source="VqVa07PzN7PPsofC3H8l-16" target="VqVa07PzN7PPsofC3H8l-39">
          <mxGeometry relative="1" as="geometry" />
        </mxCell>
        <mxCell id="VqVa07PzN7PPsofC3H8l-45" value="" style="group" vertex="1" connectable="0" parent="RIE_LA6kdXeIpZ0Pgtu8-1">
          <mxGeometry x="2480" y="400" width="280" height="80" as="geometry" />
        </mxCell>
        <mxCell id="VqVa07PzN7PPsofC3H8l-46" value="&lt;span style=&quot;color: rgb(0 , 0 , 0) ; font-family: &amp;#34;helvetica neue light&amp;#34; ; font-size: 14px ; font-style: normal ; font-weight: bold ; letter-spacing: normal ; text-indent: 0px ; text-transform: none ; word-spacing: 0px ; background-color: rgb(248 , 249 , 250) ; text-decoration: none ; display: inline ; float: none&quot;&gt;order-catalog-item-deleted&lt;/span&gt;" style="rounded=1;whiteSpace=wrap;html=1;fontSize=14;align=left;spacingLeft=20;" vertex="1" parent="VqVa07PzN7PPsofC3H8l-45">
          <mxGeometry width="280" height="80" as="geometry" />
        </mxCell>
        <mxCell id="VqVa07PzN7PPsofC3H8l-47" value="" style="group" vertex="1" connectable="0" parent="VqVa07PzN7PPsofC3H8l-45">
          <mxGeometry x="230" y="15" width="40" height="49" as="geometry" />
        </mxCell>
        <mxCell id="VqVa07PzN7PPsofC3H8l-48" value="" style="rounded=0;whiteSpace=wrap;html=1;fontSize=14;strokeWidth=2;" vertex="1" parent="VqVa07PzN7PPsofC3H8l-47">
          <mxGeometry width="40" height="10" as="geometry" />
        </mxCell>
        <mxCell id="VqVa07PzN7PPsofC3H8l-49" value="" style="rounded=0;whiteSpace=wrap;html=1;fontSize=14;strokeWidth=2;" vertex="1" parent="VqVa07PzN7PPsofC3H8l-47">
          <mxGeometry y="26" width="40" height="10" as="geometry" />
        </mxCell>
        <mxCell id="VqVa07PzN7PPsofC3H8l-50" value="" style="rounded=0;whiteSpace=wrap;html=1;fontSize=14;strokeWidth=2;" vertex="1" parent="VqVa07PzN7PPsofC3H8l-47">
          <mxGeometry y="39" width="40" height="10" as="geometry" />
        </mxCell>
        <mxCell id="VqVa07PzN7PPsofC3H8l-51" value="" style="rounded=0;whiteSpace=wrap;html=1;fontSize=14;strokeWidth=2;" vertex="1" parent="VqVa07PzN7PPsofC3H8l-47">
          <mxGeometry y="13" width="40" height="10" as="geometry" />
        </mxCell>
        <mxCell id="VqVa07PzN7PPsofC3H8l-124" style="edgeStyle=orthogonalEdgeStyle;rounded=0;orthogonalLoop=1;jettySize=auto;html=1;entryX=0;entryY=0.5;entryDx=0;entryDy=0;fontSize=14;endArrow=block;endFill=1;" edge="1" parent="RIE_LA6kdXeIpZ0Pgtu8-1" source="VqVa07PzN7PPsofC3H8l-18" target="VqVa07PzN7PPsofC3H8l-46">
          <mxGeometry relative="1" as="geometry" />
        </mxCell>
        <mxCell id="2ZYjjL6kNhcPRWoFBj0M-10" value="" style="group" vertex="1" connectable="0" parent="RIE_LA6kdXeIpZ0Pgtu8-1">
          <mxGeometry x="960" y="280" width="320" height="80" as="geometry" />
        </mxCell>
        <mxCell id="VqVa07PzN7PPsofC3H8l-0" value="Catalog.Service" style="rounded=1;whiteSpace=wrap;html=1;labelBackgroundColor=none;fontSize=25;fillColor=#b1ddf0;strokeColor=#10739e;align=left;spacingRight=0;spacingLeft=100;" vertex="1" parent="2ZYjjL6kNhcPRWoFBj0M-10">
          <mxGeometry width="320" height="80" as="geometry" />
        </mxCell>
        <mxCell id="VqVa07PzN7PPsofC3H8l-1" value="" style="shape=hexagon;perimeter=hexagonPerimeter2;whiteSpace=wrap;html=1;fixedSize=1;labelBackgroundColor=none;fontSize=20;fontColor=#ffffff;fillColor=#e51400;strokeColor=#B20000;" vertex="1" parent="2ZYjjL6kNhcPRWoFBj0M-10">
          <mxGeometry x="20" y="10" width="70" height="60" as="geometry" />
        </mxCell>
        <mxCell id="2ZYjjL6kNhcPRWoFBj0M-11" value="" style="group" vertex="1" connectable="0" parent="RIE_LA6kdXeIpZ0Pgtu8-1">
          <mxGeometry x="2880" y="280" width="320" height="80" as="geometry" />
        </mxCell>
        <mxCell id="2ZYjjL6kNhcPRWoFBj0M-12" value="Order.Service" style="rounded=1;whiteSpace=wrap;html=1;labelBackgroundColor=none;fontSize=25;fillColor=#b1ddf0;strokeColor=#10739e;align=left;spacingRight=0;spacingLeft=100;" vertex="1" parent="2ZYjjL6kNhcPRWoFBj0M-11">
          <mxGeometry width="320" height="80" as="geometry" />
        </mxCell>
        <mxCell id="2ZYjjL6kNhcPRWoFBj0M-13" value="" style="shape=hexagon;perimeter=hexagonPerimeter2;whiteSpace=wrap;html=1;fixedSize=1;labelBackgroundColor=none;fontSize=20;fontColor=#ffffff;fillColor=#60a917;strokeColor=#2D7600;" vertex="1" parent="2ZYjjL6kNhcPRWoFBj0M-11">
          <mxGeometry x="20" y="10" width="70" height="60" as="geometry" />
        </mxCell>
        <mxCell id="2ZYjjL6kNhcPRWoFBj0M-15" style="rounded=0;orthogonalLoop=1;jettySize=auto;html=1;exitX=0.5;exitY=0.636;exitDx=0;exitDy=0;entryX=0;entryY=0.5;entryDx=0;entryDy=0;fontSize=14;endArrow=block;endFill=1;exitPerimeter=0;" edge="1" parent="RIE_LA6kdXeIpZ0Pgtu8-1" source="2ZYjjL6kNhcPRWoFBj0M-14" target="VqVa07PzN7PPsofC3H8l-10">
          <mxGeometry relative="1" as="geometry" />
        </mxCell>
        <mxCell id="2ZYjjL6kNhcPRWoFBj0M-16" style="edgeStyle=none;rounded=0;orthogonalLoop=1;jettySize=auto;html=1;exitX=0.5;exitY=0.091;exitDx=0;exitDy=0;entryX=0;entryY=0.5;entryDx=0;entryDy=0;fontSize=14;endArrow=block;endFill=1;exitPerimeter=0;" edge="1" parent="RIE_LA6kdXeIpZ0Pgtu8-1" source="2ZYjjL6kNhcPRWoFBj0M-14" target="VqVa07PzN7PPsofC3H8l-8">
          <mxGeometry relative="1" as="geometry" />
        </mxCell>
        <mxCell id="2ZYjjL6kNhcPRWoFBj0M-17" style="edgeStyle=none;rounded=0;orthogonalLoop=1;jettySize=auto;html=1;entryX=0;entryY=0.5;entryDx=0;entryDy=0;fontSize=14;endArrow=block;endFill=1;exitX=0.5;exitY=0.364;exitDx=0;exitDy=0;exitPerimeter=0;" edge="1" parent="RIE_LA6kdXeIpZ0Pgtu8-1" source="2ZYjjL6kNhcPRWoFBj0M-14" target="VqVa07PzN7PPsofC3H8l-9">
          <mxGeometry relative="1" as="geometry" />
        </mxCell>
        <mxCell id="b3MyWJxwB1qqO2wCMJ-I-3" style="rounded=0;orthogonalLoop=1;jettySize=auto;html=1;entryX=0;entryY=0.5;entryDx=0;entryDy=0;fontSize=12;endArrow=block;endFill=1;exitX=0.5;exitY=0.909;exitDx=0;exitDy=0;exitPerimeter=0;" edge="1" parent="RIE_LA6kdXeIpZ0Pgtu8-1" source="2ZYjjL6kNhcPRWoFBj0M-14" target="b3MyWJxwB1qqO2wCMJ-I-0">
          <mxGeometry relative="1" as="geometry" />
        </mxCell>
        <mxCell id="2ZYjjL6kNhcPRWoFBj0M-14" value="" style="rounded=0;whiteSpace=wrap;html=1;fontSize=14;strokeWidth=2;fillColor=#000000;" vertex="1" parent="RIE_LA6kdXeIpZ0Pgtu8-1">
          <mxGeometry x="1335" y="160" width="10" height="440" as="geometry" />
        </mxCell>
        <mxCell id="2ZYjjL6kNhcPRWoFBj0M-18" style="edgeStyle=none;rounded=0;orthogonalLoop=1;jettySize=auto;html=1;entryX=-0.133;entryY=0.364;entryDx=0;entryDy=0;fontSize=14;endArrow=block;endFill=1;entryPerimeter=0;" edge="1" parent="RIE_LA6kdXeIpZ0Pgtu8-1" source="VqVa07PzN7PPsofC3H8l-0" target="2ZYjjL6kNhcPRWoFBj0M-14">
          <mxGeometry relative="1" as="geometry" />
        </mxCell>
        <mxCell id="2ZYjjL6kNhcPRWoFBj0M-28" style="edgeStyle=none;rounded=0;orthogonalLoop=1;jettySize=auto;html=1;entryX=0;entryY=0.5;entryDx=0;entryDy=0;fontSize=20;endArrow=block;endFill=1;" edge="1" parent="RIE_LA6kdXeIpZ0Pgtu8-1" source="2ZYjjL6kNhcPRWoFBj0M-23" target="2ZYjjL6kNhcPRWoFBj0M-12">
          <mxGeometry relative="1" as="geometry" />
        </mxCell>
        <mxCell id="2ZYjjL6kNhcPRWoFBj0M-23" value="" style="rounded=0;whiteSpace=wrap;html=1;fontSize=14;strokeWidth=2;fillColor=#000000;" vertex="1" parent="RIE_LA6kdXeIpZ0Pgtu8-1">
          <mxGeometry x="2815" y="160" width="10" height="320" as="geometry" />
        </mxCell>
        <mxCell id="2ZYjjL6kNhcPRWoFBj0M-25" style="edgeStyle=none;rounded=0;orthogonalLoop=1;jettySize=auto;html=1;entryX=-0.044;entryY=0.124;entryDx=0;entryDy=0;entryPerimeter=0;fontSize=20;endArrow=block;endFill=1;" edge="1" parent="RIE_LA6kdXeIpZ0Pgtu8-1" source="VqVa07PzN7PPsofC3H8l-39" target="2ZYjjL6kNhcPRWoFBj0M-23">
          <mxGeometry relative="1" as="geometry" />
        </mxCell>
        <mxCell id="2ZYjjL6kNhcPRWoFBj0M-26" style="edgeStyle=none;rounded=0;orthogonalLoop=1;jettySize=auto;html=1;entryX=0;entryY=0.5;entryDx=0;entryDy=0;fontSize=20;endArrow=block;endFill=1;" edge="1" parent="RIE_LA6kdXeIpZ0Pgtu8-1" source="VqVa07PzN7PPsofC3H8l-30" target="2ZYjjL6kNhcPRWoFBj0M-23">
          <mxGeometry relative="1" as="geometry" />
        </mxCell>
        <mxCell id="2ZYjjL6kNhcPRWoFBj0M-27" style="edgeStyle=none;rounded=0;orthogonalLoop=1;jettySize=auto;html=1;entryX=-0.058;entryY=0.875;entryDx=0;entryDy=0;entryPerimeter=0;fontSize=20;endArrow=block;endFill=1;" edge="1" parent="RIE_LA6kdXeIpZ0Pgtu8-1" source="VqVa07PzN7PPsofC3H8l-46" target="2ZYjjL6kNhcPRWoFBj0M-23">
          <mxGeometry relative="1" as="geometry" />
        </mxCell>
        <mxCell id="b3MyWJxwB1qqO2wCMJ-I-2" style="edgeStyle=orthogonalEdgeStyle;rounded=0;orthogonalLoop=1;jettySize=auto;html=1;entryX=0;entryY=0.5;entryDx=0;entryDy=0;fontSize=12;endArrow=none;endFill=0;" edge="1" parent="RIE_LA6kdXeIpZ0Pgtu8-1" source="b3MyWJxwB1qqO2wCMJ-I-0" target="b3MyWJxwB1qqO2wCMJ-I-1">
          <mxGeometry relative="1" as="geometry" />
        </mxCell>
        <mxCell id="b3MyWJxwB1qqO2wCMJ-I-0" value="CatalogItem&lt;br&gt;LowQuantity" style="shape=document;whiteSpace=wrap;html=1;boundedLbl=1;spacingTop=10;fontSize=14;fontStyle=1" vertex="1" parent="RIE_LA6kdXeIpZ0Pgtu8-1">
          <mxGeometry x="1400" y="520" width="160" height="80" as="geometry" />
        </mxCell>
        <mxCell id="b3MyWJxwB1qqO2wCMJ-I-1" value="&lt;p style=&quot;margin: 0px; font-stretch: normal; font-size: 12px; line-height: normal; font-family: &amp;quot;helvetica neue light&amp;quot;;&quot;&gt;MSPOC.Events.Catalog:CatalogItemLowQuantity&lt;/p&gt;" style="shape=hexagon;perimeter=hexagonPerimeter2;whiteSpace=wrap;html=1;fixedSize=1;fontSize=12;fontStyle=1" vertex="1" parent="RIE_LA6kdXeIpZ0Pgtu8-1">
          <mxGeometry x="1680" y="520" width="320" height="80" as="geometry" />
        </mxCell>
      </root>
    </mxGraphModel>
  </diagram>
  <diagram id="Vz-8pvsopvevarQgWyBx" name="customer-events-diagram">
    <mxGraphModel dx="897" dy="1211" grid="1" gridSize="10" guides="1" tooltips="1" connect="1" arrows="1" fold="1" page="1" pageScale="1" pageWidth="850" pageHeight="1100" math="0" shadow="0">
      <root>
        <mxCell id="05YFP0eOu1ksKckqGV55-0" />
        <mxCell id="05YFP0eOu1ksKckqGV55-1" parent="05YFP0eOu1ksKckqGV55-0" />
        <mxCell id="UyOuQF9kFnhBPDXy4vSr-0" value="Publisher Microservice" style="rounded=1;whiteSpace=wrap;html=1;fontSize=25;strokeWidth=1;dashed=1;verticalAlign=top;spacingTop=10;arcSize=4;fillColor=#f5f5f5;fontStyle=1;strokeColor=#666666;fontColor=#333333;" vertex="1" parent="05YFP0eOu1ksKckqGV55-1">
          <mxGeometry x="880" y="40" width="400" height="440" as="geometry" />
        </mxCell>
        <mxCell id="UyOuQF9kFnhBPDXy4vSr-1" value="Primary Exchange" style="rounded=1;whiteSpace=wrap;html=1;fontSize=25;strokeWidth=1;dashed=1;verticalAlign=top;spacingTop=10;arcSize=4;fillColor=#fff2cc;fontStyle=1;strokeColor=#d6b656;opacity=50;" vertex="1" parent="05YFP0eOu1ksKckqGV55-1">
          <mxGeometry x="1600" y="40" width="400" height="440" as="geometry" />
        </mxCell>
        <mxCell id="UyOuQF9kFnhBPDXy4vSr-2" value="Destination Queue" style="rounded=1;whiteSpace=wrap;html=1;fontSize=25;strokeWidth=1;dashed=1;verticalAlign=top;spacingTop=10;arcSize=4;fillColor=#d5e8d4;fontStyle=1;strokeColor=#82b366;opacity=50;" vertex="1" parent="05YFP0eOu1ksKckqGV55-1">
          <mxGeometry x="2400" y="40" width="360" height="440" as="geometry" />
        </mxCell>
        <mxCell id="UyOuQF9kFnhBPDXy4vSr-3" value="Consumer Microservice" style="rounded=1;whiteSpace=wrap;html=1;fontSize=25;strokeWidth=1;dashed=1;verticalAlign=top;spacingTop=10;arcSize=4;fillColor=#f5f5f5;fontStyle=1;strokeColor=#666666;fontColor=#333333;" vertex="1" parent="05YFP0eOu1ksKckqGV55-1">
          <mxGeometry x="2800" y="40" width="400" height="440" as="geometry" />
        </mxCell>
        <mxCell id="UyOuQF9kFnhBPDXy4vSr-4" value="Secondary Exchange" style="rounded=1;whiteSpace=wrap;html=1;fontSize=25;strokeWidth=1;dashed=1;verticalAlign=top;spacingTop=10;arcSize=4;fillColor=#ffe6cc;fontStyle=1;strokeColor=#d79b00;opacity=50;" vertex="1" parent="05YFP0eOu1ksKckqGV55-1">
          <mxGeometry x="2040" y="40" width="320" height="440" as="geometry" />
        </mxCell>
        <mxCell id="UyOuQF9kFnhBPDXy4vSr-5" value="Message" style="rounded=1;whiteSpace=wrap;html=1;fontSize=25;strokeWidth=1;dashed=1;verticalAlign=top;spacingTop=10;arcSize=4;fillColor=#dae8fc;fontStyle=1;strokeColor=#6c8ebf;opacity=50;" vertex="1" parent="05YFP0eOu1ksKckqGV55-1">
          <mxGeometry x="1320" y="40" width="240" height="440" as="geometry" />
        </mxCell>
        <mxCell id="UyOuQF9kFnhBPDXy4vSr-6" value="CustomerCreated" style="shape=document;whiteSpace=wrap;html=1;boundedLbl=1;spacingTop=10;fontSize=14;fontStyle=1" vertex="1" parent="05YFP0eOu1ksKckqGV55-1">
          <mxGeometry x="1360" y="120" width="160" height="80" as="geometry" />
        </mxCell>
        <mxCell id="UyOuQF9kFnhBPDXy4vSr-7" value="CustomerUpdated" style="shape=document;whiteSpace=wrap;html=1;boundedLbl=1;spacingTop=10;fontSize=14;fontStyle=1" vertex="1" parent="05YFP0eOu1ksKckqGV55-1">
          <mxGeometry x="1360" y="240" width="160" height="80" as="geometry" />
        </mxCell>
        <mxCell id="UyOuQF9kFnhBPDXy4vSr-8" value="CustomerDeleted" style="shape=document;whiteSpace=wrap;html=1;boundedLbl=1;spacingTop=10;fontSize=14;fontStyle=1" vertex="1" parent="05YFP0eOu1ksKckqGV55-1">
          <mxGeometry x="1360" y="360" width="160" height="80" as="geometry" />
        </mxCell>
        <mxCell id="UyOuQF9kFnhBPDXy4vSr-9" value="&lt;p style=&quot;margin: 0px ; font-stretch: normal ; font-size: 14px ; line-height: normal ; font-family: &amp;#34;helvetica neue light&amp;#34;&quot;&gt;MSPOC.Events.Customer:CustomerCreated&lt;/p&gt;" style="shape=hexagon;perimeter=hexagonPerimeter2;whiteSpace=wrap;html=1;fixedSize=1;fontSize=14;fontStyle=1" vertex="1" parent="05YFP0eOu1ksKckqGV55-1">
          <mxGeometry x="1640" y="120" width="320" height="80" as="geometry" />
        </mxCell>
        <mxCell id="UyOuQF9kFnhBPDXy4vSr-10" style="edgeStyle=orthogonalEdgeStyle;rounded=0;orthogonalLoop=1;jettySize=auto;html=1;entryX=0;entryY=0.5;entryDx=0;entryDy=0;fontSize=14;" edge="1" parent="05YFP0eOu1ksKckqGV55-1" source="UyOuQF9kFnhBPDXy4vSr-6" target="UyOuQF9kFnhBPDXy4vSr-9">
          <mxGeometry relative="1" as="geometry" />
        </mxCell>
        <mxCell id="UyOuQF9kFnhBPDXy4vSr-12" value="&lt;p style=&quot;margin: 0px ; font-stretch: normal ; font-size: 14px ; line-height: normal ; font-family: &amp;#34;helvetica neue light&amp;#34;&quot;&gt;MSPOC.Events.Customer:CustomerUpdated&lt;/p&gt;" style="shape=hexagon;perimeter=hexagonPerimeter2;whiteSpace=wrap;html=1;fixedSize=1;fontSize=14;fontStyle=1" vertex="1" parent="05YFP0eOu1ksKckqGV55-1">
          <mxGeometry x="1640" y="240" width="320" height="80" as="geometry" />
        </mxCell>
        <mxCell id="UyOuQF9kFnhBPDXy4vSr-13" style="edgeStyle=orthogonalEdgeStyle;rounded=0;orthogonalLoop=1;jettySize=auto;html=1;entryX=0;entryY=0.5;entryDx=0;entryDy=0;fontSize=14;" edge="1" parent="05YFP0eOu1ksKckqGV55-1" source="UyOuQF9kFnhBPDXy4vSr-7" target="UyOuQF9kFnhBPDXy4vSr-12">
          <mxGeometry relative="1" as="geometry" />
        </mxCell>
        <mxCell id="UyOuQF9kFnhBPDXy4vSr-14" value="&lt;p style=&quot;margin: 0px ; font-stretch: normal ; font-size: 14px ; line-height: normal ; font-family: &amp;#34;helvetica neue light&amp;#34;&quot;&gt;MSPOC.Events.Customer:CustomerDeleted&lt;/p&gt;" style="shape=hexagon;perimeter=hexagonPerimeter2;whiteSpace=wrap;html=1;fixedSize=1;fontSize=14;fontStyle=1" vertex="1" parent="05YFP0eOu1ksKckqGV55-1">
          <mxGeometry x="1640" y="360" width="320" height="80" as="geometry" />
        </mxCell>
        <mxCell id="UyOuQF9kFnhBPDXy4vSr-15" style="edgeStyle=orthogonalEdgeStyle;rounded=0;orthogonalLoop=1;jettySize=auto;html=1;entryX=0;entryY=0.5;entryDx=0;entryDy=0;fontSize=14;" edge="1" parent="05YFP0eOu1ksKckqGV55-1" source="UyOuQF9kFnhBPDXy4vSr-8" target="UyOuQF9kFnhBPDXy4vSr-14">
          <mxGeometry relative="1" as="geometry" />
        </mxCell>
        <mxCell id="UyOuQF9kFnhBPDXy4vSr-16" value="&lt;p style=&quot;margin: 0px ; font-stretch: normal ; font-size: 14px ; line-height: normal ; font-family: &amp;#34;helvetica neue light&amp;#34;&quot;&gt;order-customer-created&lt;/p&gt;" style="shape=hexagon;perimeter=hexagonPerimeter2;whiteSpace=wrap;html=1;fixedSize=1;fontSize=14;fontStyle=1" vertex="1" parent="05YFP0eOu1ksKckqGV55-1">
          <mxGeometry x="2080" y="120" width="240" height="80" as="geometry" />
        </mxCell>
        <mxCell id="UyOuQF9kFnhBPDXy4vSr-17" style="edgeStyle=orthogonalEdgeStyle;rounded=0;orthogonalLoop=1;jettySize=auto;html=1;entryX=0;entryY=0.5;entryDx=0;entryDy=0;fontSize=14;" edge="1" parent="05YFP0eOu1ksKckqGV55-1" source="UyOuQF9kFnhBPDXy4vSr-9" target="UyOuQF9kFnhBPDXy4vSr-16">
          <mxGeometry relative="1" as="geometry" />
        </mxCell>
        <mxCell id="UyOuQF9kFnhBPDXy4vSr-18" value="&lt;p style=&quot;margin: 0px ; font-stretch: normal ; font-size: 14px ; line-height: normal ; font-family: &amp;#34;helvetica neue light&amp;#34;&quot;&gt;order-customer-updated&lt;/p&gt;" style="shape=hexagon;perimeter=hexagonPerimeter2;whiteSpace=wrap;html=1;fixedSize=1;fontSize=14;fontStyle=1" vertex="1" parent="05YFP0eOu1ksKckqGV55-1">
          <mxGeometry x="2080" y="240" width="240" height="80" as="geometry" />
        </mxCell>
        <mxCell id="UyOuQF9kFnhBPDXy4vSr-11" style="edgeStyle=none;rounded=0;orthogonalLoop=1;jettySize=auto;html=1;entryX=0;entryY=0.5;entryDx=0;entryDy=0;fontSize=20;endArrow=block;endFill=1;" edge="1" parent="05YFP0eOu1ksKckqGV55-1" source="UyOuQF9kFnhBPDXy4vSr-12" target="UyOuQF9kFnhBPDXy4vSr-18">
          <mxGeometry relative="1" as="geometry" />
        </mxCell>
        <mxCell id="UyOuQF9kFnhBPDXy4vSr-19" value="&lt;p style=&quot;margin: 0px ; font-stretch: normal ; font-size: 14px ; line-height: normal ; font-family: &amp;#34;helvetica neue light&amp;#34;&quot;&gt;order-customer-deleted&lt;/p&gt;" style="shape=hexagon;perimeter=hexagonPerimeter2;whiteSpace=wrap;html=1;fixedSize=1;fontSize=14;fontStyle=1" vertex="1" parent="05YFP0eOu1ksKckqGV55-1">
          <mxGeometry x="2080" y="360" width="240" height="80" as="geometry" />
        </mxCell>
        <mxCell id="UyOuQF9kFnhBPDXy4vSr-20" style="edgeStyle=orthogonalEdgeStyle;rounded=0;orthogonalLoop=1;jettySize=auto;html=1;entryX=0;entryY=0.5;entryDx=0;entryDy=0;fontSize=14;" edge="1" parent="05YFP0eOu1ksKckqGV55-1" source="UyOuQF9kFnhBPDXy4vSr-14" target="UyOuQF9kFnhBPDXy4vSr-19">
          <mxGeometry relative="1" as="geometry" />
        </mxCell>
        <mxCell id="UyOuQF9kFnhBPDXy4vSr-21" value="" style="group" vertex="1" connectable="0" parent="05YFP0eOu1ksKckqGV55-1">
          <mxGeometry x="2440" y="240" width="285" height="80" as="geometry" />
        </mxCell>
        <mxCell id="UyOuQF9kFnhBPDXy4vSr-22" value="&lt;span style=&quot;font-family: &amp;#34;helvetica neue light&amp;#34; ; font-weight: bold ; text-align: center&quot;&gt;order-customer-updated&lt;/span&gt;" style="rounded=1;whiteSpace=wrap;html=1;fontSize=14;align=left;spacingLeft=20;" vertex="1" parent="UyOuQF9kFnhBPDXy4vSr-21">
          <mxGeometry width="280" height="80" as="geometry" />
        </mxCell>
        <mxCell id="UyOuQF9kFnhBPDXy4vSr-23" value="" style="group" vertex="1" connectable="0" parent="UyOuQF9kFnhBPDXy4vSr-21">
          <mxGeometry x="230" y="15" width="55" height="54.5" as="geometry" />
        </mxCell>
        <mxCell id="UyOuQF9kFnhBPDXy4vSr-24" value="" style="rounded=0;whiteSpace=wrap;html=1;fontSize=14;strokeWidth=2;" vertex="1" parent="UyOuQF9kFnhBPDXy4vSr-23">
          <mxGeometry width="40" height="10" as="geometry" />
        </mxCell>
        <mxCell id="UyOuQF9kFnhBPDXy4vSr-25" value="" style="rounded=0;whiteSpace=wrap;html=1;fontSize=14;strokeWidth=2;" vertex="1" parent="UyOuQF9kFnhBPDXy4vSr-23">
          <mxGeometry y="26" width="40" height="10" as="geometry" />
        </mxCell>
        <mxCell id="UyOuQF9kFnhBPDXy4vSr-26" value="" style="rounded=0;whiteSpace=wrap;html=1;fontSize=14;strokeWidth=2;" vertex="1" parent="UyOuQF9kFnhBPDXy4vSr-23">
          <mxGeometry y="39" width="40" height="10" as="geometry" />
        </mxCell>
        <mxCell id="UyOuQF9kFnhBPDXy4vSr-27" value="" style="rounded=0;whiteSpace=wrap;html=1;fontSize=14;strokeWidth=2;" vertex="1" parent="UyOuQF9kFnhBPDXy4vSr-23">
          <mxGeometry y="13" width="40" height="10" as="geometry" />
        </mxCell>
        <mxCell id="UyOuQF9kFnhBPDXy4vSr-28" style="edgeStyle=orthogonalEdgeStyle;rounded=0;orthogonalLoop=1;jettySize=auto;html=1;entryX=0;entryY=0.5;entryDx=0;entryDy=0;fontSize=14;endArrow=block;endFill=1;" edge="1" parent="05YFP0eOu1ksKckqGV55-1" source="UyOuQF9kFnhBPDXy4vSr-18" target="UyOuQF9kFnhBPDXy4vSr-22">
          <mxGeometry relative="1" as="geometry" />
        </mxCell>
        <mxCell id="UyOuQF9kFnhBPDXy4vSr-29" value="" style="group" vertex="1" connectable="0" parent="05YFP0eOu1ksKckqGV55-1">
          <mxGeometry x="2440" y="120" width="280" height="80" as="geometry" />
        </mxCell>
        <mxCell id="UyOuQF9kFnhBPDXy4vSr-30" value="&lt;span style=&quot;font-family: &amp;#34;helvetica neue light&amp;#34; ; font-weight: bold ; text-align: center&quot;&gt;order-customer-created&lt;/span&gt;" style="rounded=1;whiteSpace=wrap;html=1;fontSize=14;align=left;spacingLeft=20;" vertex="1" parent="UyOuQF9kFnhBPDXy4vSr-29">
          <mxGeometry width="280" height="80" as="geometry" />
        </mxCell>
        <mxCell id="UyOuQF9kFnhBPDXy4vSr-31" value="" style="group" vertex="1" connectable="0" parent="UyOuQF9kFnhBPDXy4vSr-29">
          <mxGeometry x="230" y="15" width="40" height="49" as="geometry" />
        </mxCell>
        <mxCell id="UyOuQF9kFnhBPDXy4vSr-32" value="" style="rounded=0;whiteSpace=wrap;html=1;fontSize=14;strokeWidth=2;" vertex="1" parent="UyOuQF9kFnhBPDXy4vSr-31">
          <mxGeometry width="40" height="10" as="geometry" />
        </mxCell>
        <mxCell id="UyOuQF9kFnhBPDXy4vSr-33" value="" style="rounded=0;whiteSpace=wrap;html=1;fontSize=14;strokeWidth=2;" vertex="1" parent="UyOuQF9kFnhBPDXy4vSr-31">
          <mxGeometry y="26" width="40" height="10" as="geometry" />
        </mxCell>
        <mxCell id="UyOuQF9kFnhBPDXy4vSr-34" value="" style="rounded=0;whiteSpace=wrap;html=1;fontSize=14;strokeWidth=2;" vertex="1" parent="UyOuQF9kFnhBPDXy4vSr-31">
          <mxGeometry y="39" width="40" height="10" as="geometry" />
        </mxCell>
        <mxCell id="UyOuQF9kFnhBPDXy4vSr-35" value="" style="rounded=0;whiteSpace=wrap;html=1;fontSize=14;strokeWidth=2;" vertex="1" parent="UyOuQF9kFnhBPDXy4vSr-31">
          <mxGeometry y="13" width="40" height="10" as="geometry" />
        </mxCell>
        <mxCell id="UyOuQF9kFnhBPDXy4vSr-36" style="edgeStyle=orthogonalEdgeStyle;rounded=0;orthogonalLoop=1;jettySize=auto;html=1;entryX=0;entryY=0.5;entryDx=0;entryDy=0;fontSize=14;endArrow=block;endFill=1;" edge="1" parent="05YFP0eOu1ksKckqGV55-1" source="UyOuQF9kFnhBPDXy4vSr-16" target="UyOuQF9kFnhBPDXy4vSr-30">
          <mxGeometry relative="1" as="geometry" />
        </mxCell>
        <mxCell id="UyOuQF9kFnhBPDXy4vSr-37" value="" style="group" vertex="1" connectable="0" parent="05YFP0eOu1ksKckqGV55-1">
          <mxGeometry x="2440" y="360" width="280" height="80" as="geometry" />
        </mxCell>
        <mxCell id="UyOuQF9kFnhBPDXy4vSr-38" value="&lt;span style=&quot;font-family: &amp;#34;helvetica neue light&amp;#34; ; font-weight: bold ; text-align: center&quot;&gt;order-customer-deleted&lt;/span&gt;" style="rounded=1;whiteSpace=wrap;html=1;fontSize=14;align=left;spacingLeft=20;" vertex="1" parent="UyOuQF9kFnhBPDXy4vSr-37">
          <mxGeometry width="280" height="80" as="geometry" />
        </mxCell>
        <mxCell id="UyOuQF9kFnhBPDXy4vSr-39" value="" style="group" vertex="1" connectable="0" parent="UyOuQF9kFnhBPDXy4vSr-37">
          <mxGeometry x="230" y="15" width="40" height="49" as="geometry" />
        </mxCell>
        <mxCell id="UyOuQF9kFnhBPDXy4vSr-40" value="" style="rounded=0;whiteSpace=wrap;html=1;fontSize=14;strokeWidth=2;" vertex="1" parent="UyOuQF9kFnhBPDXy4vSr-39">
          <mxGeometry width="40" height="10" as="geometry" />
        </mxCell>
        <mxCell id="UyOuQF9kFnhBPDXy4vSr-41" value="" style="rounded=0;whiteSpace=wrap;html=1;fontSize=14;strokeWidth=2;" vertex="1" parent="UyOuQF9kFnhBPDXy4vSr-39">
          <mxGeometry y="26" width="40" height="10" as="geometry" />
        </mxCell>
        <mxCell id="UyOuQF9kFnhBPDXy4vSr-42" value="" style="rounded=0;whiteSpace=wrap;html=1;fontSize=14;strokeWidth=2;" vertex="1" parent="UyOuQF9kFnhBPDXy4vSr-39">
          <mxGeometry y="39" width="40" height="10" as="geometry" />
        </mxCell>
        <mxCell id="UyOuQF9kFnhBPDXy4vSr-43" value="" style="rounded=0;whiteSpace=wrap;html=1;fontSize=14;strokeWidth=2;" vertex="1" parent="UyOuQF9kFnhBPDXy4vSr-39">
          <mxGeometry y="13" width="40" height="10" as="geometry" />
        </mxCell>
        <mxCell id="UyOuQF9kFnhBPDXy4vSr-44" style="edgeStyle=orthogonalEdgeStyle;rounded=0;orthogonalLoop=1;jettySize=auto;html=1;entryX=0;entryY=0.5;entryDx=0;entryDy=0;fontSize=14;endArrow=block;endFill=1;" edge="1" parent="05YFP0eOu1ksKckqGV55-1" source="UyOuQF9kFnhBPDXy4vSr-19" target="UyOuQF9kFnhBPDXy4vSr-38">
          <mxGeometry relative="1" as="geometry" />
        </mxCell>
        <mxCell id="UyOuQF9kFnhBPDXy4vSr-45" value="" style="group" vertex="1" connectable="0" parent="05YFP0eOu1ksKckqGV55-1">
          <mxGeometry x="2840" y="240" width="320" height="80" as="geometry" />
        </mxCell>
        <mxCell id="UyOuQF9kFnhBPDXy4vSr-46" value="Order.Service" style="rounded=1;whiteSpace=wrap;html=1;labelBackgroundColor=none;fontSize=25;fillColor=#b1ddf0;strokeColor=#10739e;align=left;spacingRight=0;spacingLeft=100;" vertex="1" parent="UyOuQF9kFnhBPDXy4vSr-45">
          <mxGeometry width="320" height="80" as="geometry" />
        </mxCell>
        <mxCell id="UyOuQF9kFnhBPDXy4vSr-47" value="" style="shape=hexagon;perimeter=hexagonPerimeter2;whiteSpace=wrap;html=1;fixedSize=1;labelBackgroundColor=none;fontSize=20;fontColor=#ffffff;fillColor=#60a917;strokeColor=#2D7600;" vertex="1" parent="UyOuQF9kFnhBPDXy4vSr-45">
          <mxGeometry x="20" y="10" width="70" height="60" as="geometry" />
        </mxCell>
        <mxCell id="UyOuQF9kFnhBPDXy4vSr-48" style="rounded=0;orthogonalLoop=1;jettySize=auto;html=1;exitX=0.5;exitY=0.875;exitDx=0;exitDy=0;entryX=0;entryY=0.5;entryDx=0;entryDy=0;fontSize=14;endArrow=block;endFill=1;exitPerimeter=0;" edge="1" parent="05YFP0eOu1ksKckqGV55-1" source="UyOuQF9kFnhBPDXy4vSr-51" target="UyOuQF9kFnhBPDXy4vSr-8">
          <mxGeometry relative="1" as="geometry" />
        </mxCell>
        <mxCell id="UyOuQF9kFnhBPDXy4vSr-49" style="edgeStyle=none;rounded=0;orthogonalLoop=1;jettySize=auto;html=1;exitX=0.5;exitY=0.125;exitDx=0;exitDy=0;entryX=0;entryY=0.5;entryDx=0;entryDy=0;fontSize=14;endArrow=block;endFill=1;exitPerimeter=0;" edge="1" parent="05YFP0eOu1ksKckqGV55-1" source="UyOuQF9kFnhBPDXy4vSr-51" target="UyOuQF9kFnhBPDXy4vSr-6">
          <mxGeometry relative="1" as="geometry" />
        </mxCell>
        <mxCell id="UyOuQF9kFnhBPDXy4vSr-50" style="edgeStyle=none;rounded=0;orthogonalLoop=1;jettySize=auto;html=1;entryX=0;entryY=0.5;entryDx=0;entryDy=0;fontSize=14;endArrow=block;endFill=1;" edge="1" parent="05YFP0eOu1ksKckqGV55-1" source="UyOuQF9kFnhBPDXy4vSr-51" target="UyOuQF9kFnhBPDXy4vSr-7">
          <mxGeometry relative="1" as="geometry" />
        </mxCell>
        <mxCell id="UyOuQF9kFnhBPDXy4vSr-51" value="" style="rounded=0;whiteSpace=wrap;html=1;fontSize=14;strokeWidth=2;fillColor=#000000;" vertex="1" parent="05YFP0eOu1ksKckqGV55-1">
          <mxGeometry x="1295" y="120" width="10" height="320" as="geometry" />
        </mxCell>
        <mxCell id="UyOuQF9kFnhBPDXy4vSr-52" style="edgeStyle=none;rounded=0;orthogonalLoop=1;jettySize=auto;html=1;entryX=0;entryY=0.5;entryDx=0;entryDy=0;fontSize=14;endArrow=block;endFill=1;exitX=1;exitY=0.5;exitDx=0;exitDy=0;" edge="1" parent="05YFP0eOu1ksKckqGV55-1" source="UyOuQF9kFnhBPDXy4vSr-59" target="UyOuQF9kFnhBPDXy4vSr-51">
          <mxGeometry relative="1" as="geometry" />
        </mxCell>
        <mxCell id="UyOuQF9kFnhBPDXy4vSr-53" style="edgeStyle=none;rounded=0;orthogonalLoop=1;jettySize=auto;html=1;entryX=0;entryY=0.5;entryDx=0;entryDy=0;fontSize=20;endArrow=block;endFill=1;" edge="1" parent="05YFP0eOu1ksKckqGV55-1" source="UyOuQF9kFnhBPDXy4vSr-54" target="UyOuQF9kFnhBPDXy4vSr-46">
          <mxGeometry relative="1" as="geometry" />
        </mxCell>
        <mxCell id="UyOuQF9kFnhBPDXy4vSr-54" value="" style="rounded=0;whiteSpace=wrap;html=1;fontSize=14;strokeWidth=2;fillColor=#000000;" vertex="1" parent="05YFP0eOu1ksKckqGV55-1">
          <mxGeometry x="2775" y="120" width="10" height="320" as="geometry" />
        </mxCell>
        <mxCell id="UyOuQF9kFnhBPDXy4vSr-55" style="edgeStyle=none;rounded=0;orthogonalLoop=1;jettySize=auto;html=1;entryX=-0.044;entryY=0.124;entryDx=0;entryDy=0;entryPerimeter=0;fontSize=20;endArrow=block;endFill=1;" edge="1" parent="05YFP0eOu1ksKckqGV55-1" source="UyOuQF9kFnhBPDXy4vSr-30" target="UyOuQF9kFnhBPDXy4vSr-54">
          <mxGeometry relative="1" as="geometry" />
        </mxCell>
        <mxCell id="UyOuQF9kFnhBPDXy4vSr-56" style="edgeStyle=none;rounded=0;orthogonalLoop=1;jettySize=auto;html=1;entryX=0;entryY=0.5;entryDx=0;entryDy=0;fontSize=20;endArrow=block;endFill=1;" edge="1" parent="05YFP0eOu1ksKckqGV55-1" source="UyOuQF9kFnhBPDXy4vSr-22" target="UyOuQF9kFnhBPDXy4vSr-54">
          <mxGeometry relative="1" as="geometry" />
        </mxCell>
        <mxCell id="UyOuQF9kFnhBPDXy4vSr-57" style="edgeStyle=none;rounded=0;orthogonalLoop=1;jettySize=auto;html=1;entryX=-0.058;entryY=0.875;entryDx=0;entryDy=0;entryPerimeter=0;fontSize=20;endArrow=block;endFill=1;" edge="1" parent="05YFP0eOu1ksKckqGV55-1" source="UyOuQF9kFnhBPDXy4vSr-38" target="UyOuQF9kFnhBPDXy4vSr-54">
          <mxGeometry relative="1" as="geometry" />
        </mxCell>
        <mxCell id="UyOuQF9kFnhBPDXy4vSr-58" value="" style="group" vertex="1" connectable="0" parent="05YFP0eOu1ksKckqGV55-1">
          <mxGeometry x="920" y="240" width="320" height="80" as="geometry" />
        </mxCell>
        <mxCell id="UyOuQF9kFnhBPDXy4vSr-59" value="Customer.Service" style="rounded=1;whiteSpace=wrap;html=1;labelBackgroundColor=none;fontSize=25;fillColor=#b1ddf0;strokeColor=#10739e;align=left;spacingRight=0;spacingLeft=100;" vertex="1" parent="UyOuQF9kFnhBPDXy4vSr-58">
          <mxGeometry width="320" height="80" as="geometry" />
        </mxCell>
        <mxCell id="UyOuQF9kFnhBPDXy4vSr-60" value="" style="shape=hexagon;perimeter=hexagonPerimeter2;whiteSpace=wrap;html=1;fixedSize=1;labelBackgroundColor=none;fontSize=20;fontColor=#000000;fillColor=#f0a30a;strokeColor=#BD7000;" vertex="1" parent="UyOuQF9kFnhBPDXy4vSr-58">
          <mxGeometry x="20" y="10" width="70" height="60" as="geometry" />
        </mxCell>
      </root>
    </mxGraphModel>
  </diagram>
  <diagram id="j7lsjN85heQd_I3Yy7Wz" name="order-events-diagram">
    <mxGraphModel dx="460" dy="908" grid="1" gridSize="10" guides="1" tooltips="1" connect="1" arrows="1" fold="1" page="1" pageScale="1" pageWidth="850" pageHeight="1100" math="0" shadow="0">
      <root>
        <mxCell id="bGlFaTIQ4-msruLbQkjW-0" />
        <mxCell id="bGlFaTIQ4-msruLbQkjW-1" parent="bGlFaTIQ4-msruLbQkjW-0" />
        <mxCell id="qg2XAIY1Ixtnio8s-Jvh-1" value="Consumer Microservice" style="rounded=1;whiteSpace=wrap;html=1;fontSize=25;strokeWidth=1;dashed=1;verticalAlign=top;spacingTop=10;arcSize=4;fillColor=#f5f5f5;fontStyle=1;strokeColor=#666666;fontColor=#333333;" vertex="1" parent="bGlFaTIQ4-msruLbQkjW-1">
          <mxGeometry x="2960" y="80" width="400" height="840" as="geometry" />
        </mxCell>
        <mxCell id="qg2XAIY1Ixtnio8s-Jvh-2" value="Publisher Microservice" style="rounded=1;whiteSpace=wrap;html=1;fontSize=25;strokeWidth=1;dashed=1;verticalAlign=top;spacingTop=10;arcSize=4;fillColor=#f5f5f5;fontStyle=1;strokeColor=#666666;fontColor=#333333;" vertex="1" parent="bGlFaTIQ4-msruLbQkjW-1">
          <mxGeometry x="920" y="80" width="400" height="840" as="geometry" />
        </mxCell>
        <mxCell id="qg2XAIY1Ixtnio8s-Jvh-3" value="Primary Exchange" style="rounded=1;whiteSpace=wrap;html=1;fontSize=25;strokeWidth=1;dashed=1;verticalAlign=top;spacingTop=10;arcSize=4;fillColor=#fff2cc;fontStyle=1;strokeColor=#d6b656;opacity=50;" vertex="1" parent="bGlFaTIQ4-msruLbQkjW-1">
          <mxGeometry x="1640" y="80" width="400" height="840" as="geometry" />
        </mxCell>
        <mxCell id="qg2XAIY1Ixtnio8s-Jvh-4" value="Destination Queue" style="rounded=1;whiteSpace=wrap;html=1;fontSize=25;strokeWidth=1;dashed=1;verticalAlign=top;spacingTop=10;arcSize=4;fillColor=#d5e8d4;fontStyle=1;strokeColor=#82b366;opacity=50;" vertex="1" parent="bGlFaTIQ4-msruLbQkjW-1">
          <mxGeometry x="2560" y="80" width="360" height="840" as="geometry" />
        </mxCell>
        <mxCell id="qg2XAIY1Ixtnio8s-Jvh-5" value="Secondary Exchange" style="rounded=1;whiteSpace=wrap;html=1;fontSize=25;strokeWidth=1;dashed=1;verticalAlign=top;spacingTop=10;arcSize=4;fillColor=#ffe6cc;fontStyle=1;strokeColor=#d79b00;opacity=50;" vertex="1" parent="bGlFaTIQ4-msruLbQkjW-1">
          <mxGeometry x="2200" y="80" width="320" height="840" as="geometry" />
        </mxCell>
        <mxCell id="qg2XAIY1Ixtnio8s-Jvh-6" value="Message" style="rounded=1;whiteSpace=wrap;html=1;fontSize=25;strokeWidth=1;dashed=1;verticalAlign=top;spacingTop=10;arcSize=4;fillColor=#dae8fc;fontStyle=1;strokeColor=#6c8ebf;opacity=50;" vertex="1" parent="bGlFaTIQ4-msruLbQkjW-1">
          <mxGeometry x="1360" y="80" width="240" height="840" as="geometry" />
        </mxCell>
        <mxCell id="qg2XAIY1Ixtnio8s-Jvh-7" value="OrderCreated" style="shape=document;whiteSpace=wrap;html=1;boundedLbl=1;spacingTop=10;fontSize=14;fontStyle=1" vertex="1" parent="bGlFaTIQ4-msruLbQkjW-1">
          <mxGeometry x="1400" y="160" width="160" height="80" as="geometry" />
        </mxCell>
        <mxCell id="qg2XAIY1Ixtnio8s-Jvh-8" value="OrderUpdated" style="shape=document;whiteSpace=wrap;html=1;boundedLbl=1;spacingTop=10;fontSize=14;fontStyle=1" vertex="1" parent="bGlFaTIQ4-msruLbQkjW-1">
          <mxGeometry x="1400" y="280" width="160" height="80" as="geometry" />
        </mxCell>
        <mxCell id="qg2XAIY1Ixtnio8s-Jvh-9" value="OrderDeleted" style="shape=document;whiteSpace=wrap;html=1;boundedLbl=1;spacingTop=10;fontSize=14;fontStyle=1" vertex="1" parent="bGlFaTIQ4-msruLbQkjW-1">
          <mxGeometry x="1400" y="400" width="160" height="80" as="geometry" />
        </mxCell>
        <mxCell id="qg2XAIY1Ixtnio8s-Jvh-10" value="&lt;p style=&quot;margin: 0px ; font-stretch: normal ; font-size: 14px ; line-height: normal ; font-family: &amp;#34;helvetica neue light&amp;#34;&quot;&gt;MSPOC.Events.Order:OrderCreated&lt;/p&gt;" style="shape=hexagon;perimeter=hexagonPerimeter2;whiteSpace=wrap;html=1;fixedSize=1;fontSize=14;fontStyle=1" vertex="1" parent="bGlFaTIQ4-msruLbQkjW-1">
          <mxGeometry x="1680" y="160" width="320" height="80" as="geometry" />
        </mxCell>
        <mxCell id="qg2XAIY1Ixtnio8s-Jvh-11" style="edgeStyle=orthogonalEdgeStyle;rounded=0;orthogonalLoop=1;jettySize=auto;html=1;entryX=0;entryY=0.5;entryDx=0;entryDy=0;fontSize=14;" edge="1" parent="bGlFaTIQ4-msruLbQkjW-1" source="qg2XAIY1Ixtnio8s-Jvh-7" target="qg2XAIY1Ixtnio8s-Jvh-10">
          <mxGeometry relative="1" as="geometry" />
        </mxCell>
        <mxCell id="qg2XAIY1Ixtnio8s-Jvh-12" value="&lt;p style=&quot;margin: 0px ; font-stretch: normal ; font-size: 14px ; line-height: normal ; font-family: &amp;#34;helvetica neue light&amp;#34;&quot;&gt;MSPOC.Events.Order:OrderUpdated&lt;br&gt;&lt;/p&gt;" style="shape=hexagon;perimeter=hexagonPerimeter2;whiteSpace=wrap;html=1;fixedSize=1;fontSize=14;fontStyle=1" vertex="1" parent="bGlFaTIQ4-msruLbQkjW-1">
          <mxGeometry x="1680" y="280" width="320" height="80" as="geometry" />
        </mxCell>
        <mxCell id="qg2XAIY1Ixtnio8s-Jvh-13" style="edgeStyle=orthogonalEdgeStyle;rounded=0;orthogonalLoop=1;jettySize=auto;html=1;entryX=0;entryY=0.5;entryDx=0;entryDy=0;fontSize=14;" edge="1" parent="bGlFaTIQ4-msruLbQkjW-1" source="qg2XAIY1Ixtnio8s-Jvh-8" target="qg2XAIY1Ixtnio8s-Jvh-12">
          <mxGeometry relative="1" as="geometry" />
        </mxCell>
        <mxCell id="qg2XAIY1Ixtnio8s-Jvh-14" value="&lt;p style=&quot;margin: 0px ; font-stretch: normal ; font-size: 14px ; line-height: normal ; font-family: &amp;#34;helvetica neue light&amp;#34;&quot;&gt;MSPOC.Events.Order:OrderRemoved&lt;br&gt;&lt;/p&gt;" style="shape=hexagon;perimeter=hexagonPerimeter2;whiteSpace=wrap;html=1;fixedSize=1;fontSize=14;fontStyle=1" vertex="1" parent="bGlFaTIQ4-msruLbQkjW-1">
          <mxGeometry x="1680" y="400" width="320" height="80" as="geometry" />
        </mxCell>
        <mxCell id="qg2XAIY1Ixtnio8s-Jvh-15" style="edgeStyle=orthogonalEdgeStyle;rounded=0;orthogonalLoop=1;jettySize=auto;html=1;entryX=0;entryY=0.5;entryDx=0;entryDy=0;fontSize=14;" edge="1" parent="bGlFaTIQ4-msruLbQkjW-1" source="qg2XAIY1Ixtnio8s-Jvh-9" target="qg2XAIY1Ixtnio8s-Jvh-14">
          <mxGeometry relative="1" as="geometry" />
        </mxCell>
        <mxCell id="qg2XAIY1Ixtnio8s-Jvh-16" value="&lt;span style=&quot;color: rgb(0, 0, 0); font-family: &amp;quot;helvetica neue light&amp;quot;; font-size: 14px; font-style: normal; font-weight: bold; letter-spacing: normal; text-align: center; text-indent: 0px; text-transform: none; word-spacing: 0px; background-color: rgb(248, 249, 250); text-decoration: none; display: inline; float: none;&quot;&gt;catalog-order-created&lt;/span&gt;" style="shape=hexagon;perimeter=hexagonPerimeter2;whiteSpace=wrap;html=1;fixedSize=1;fontSize=14;fontStyle=1" vertex="1" parent="bGlFaTIQ4-msruLbQkjW-1">
          <mxGeometry x="2240" y="160" width="240" height="80" as="geometry" />
        </mxCell>
        <mxCell id="qg2XAIY1Ixtnio8s-Jvh-17" value="&lt;span style=&quot;color: rgb(0, 0, 0); font-size: 14px; font-style: normal; letter-spacing: normal; text-indent: 0px; text-transform: none; word-spacing: 0px; text-decoration: none; font-family: &amp;quot;helvetica neue light&amp;quot;; font-weight: bold; text-align: center;&quot;&gt;catalog-order-&lt;/span&gt;&lt;span style=&quot;color: rgb(0, 0, 0); font-size: 14px; font-style: normal; letter-spacing: normal; text-indent: 0px; text-transform: none; word-spacing: 0px; text-decoration: none; font-family: &amp;quot;helvetica neue light&amp;quot;; font-weight: bold; text-align: center;&quot;&gt;updated&lt;/span&gt;" style="shape=hexagon;perimeter=hexagonPerimeter2;whiteSpace=wrap;html=1;fixedSize=1;fontSize=14;fontStyle=1" vertex="1" parent="bGlFaTIQ4-msruLbQkjW-1">
          <mxGeometry x="2240" y="280" width="240" height="80" as="geometry" />
        </mxCell>
        <mxCell id="qg2XAIY1Ixtnio8s-Jvh-18" value="&lt;span style=&quot;color: rgb(0, 0, 0); font-size: 14px; font-style: normal; letter-spacing: normal; text-indent: 0px; text-transform: none; word-spacing: 0px; text-decoration: none; font-family: &amp;quot;helvetica neue light&amp;quot;; font-weight: bold; text-align: center;&quot;&gt;catalog-order-&lt;/span&gt;&lt;span style=&quot;color: rgb(0, 0, 0); font-size: 14px; font-style: normal; letter-spacing: normal; text-indent: 0px; text-transform: none; word-spacing: 0px; text-decoration: none; font-family: &amp;quot;helvetica neue light&amp;quot;; font-weight: bold; text-align: center;&quot;&gt;removed&lt;/span&gt;" style="shape=hexagon;perimeter=hexagonPerimeter2;whiteSpace=wrap;html=1;fixedSize=1;fontSize=14;fontStyle=1" vertex="1" parent="bGlFaTIQ4-msruLbQkjW-1">
          <mxGeometry x="2240" y="400" width="240" height="80" as="geometry" />
        </mxCell>
        <mxCell id="qg2XAIY1Ixtnio8s-Jvh-19" value="" style="group" vertex="1" connectable="0" parent="bGlFaTIQ4-msruLbQkjW-1">
          <mxGeometry x="2600" y="280" width="285" height="80" as="geometry" />
        </mxCell>
        <mxCell id="qg2XAIY1Ixtnio8s-Jvh-20" value="&lt;span style=&quot;font-family: &amp;#34;helvetica neue light&amp;#34; ; font-weight: bold ; text-align: center&quot;&gt;catalog-order-&lt;/span&gt;&lt;span style=&quot;font-family: &amp;#34;helvetica neue light&amp;#34; ; font-weight: bold ; text-align: center&quot;&gt;updated&lt;/span&gt;" style="rounded=1;whiteSpace=wrap;html=1;fontSize=14;align=left;spacingLeft=20;" vertex="1" parent="qg2XAIY1Ixtnio8s-Jvh-19">
          <mxGeometry width="280" height="80" as="geometry" />
        </mxCell>
        <mxCell id="qg2XAIY1Ixtnio8s-Jvh-21" value="" style="group" vertex="1" connectable="0" parent="qg2XAIY1Ixtnio8s-Jvh-19">
          <mxGeometry x="230" y="15" width="55" height="54.5" as="geometry" />
        </mxCell>
        <mxCell id="qg2XAIY1Ixtnio8s-Jvh-22" value="" style="rounded=0;whiteSpace=wrap;html=1;fontSize=14;strokeWidth=2;" vertex="1" parent="qg2XAIY1Ixtnio8s-Jvh-21">
          <mxGeometry width="40" height="10" as="geometry" />
        </mxCell>
        <mxCell id="qg2XAIY1Ixtnio8s-Jvh-23" value="" style="rounded=0;whiteSpace=wrap;html=1;fontSize=14;strokeWidth=2;" vertex="1" parent="qg2XAIY1Ixtnio8s-Jvh-21">
          <mxGeometry y="26" width="40" height="10" as="geometry" />
        </mxCell>
        <mxCell id="qg2XAIY1Ixtnio8s-Jvh-24" value="" style="rounded=0;whiteSpace=wrap;html=1;fontSize=14;strokeWidth=2;" vertex="1" parent="qg2XAIY1Ixtnio8s-Jvh-21">
          <mxGeometry y="39" width="40" height="10" as="geometry" />
        </mxCell>
        <mxCell id="qg2XAIY1Ixtnio8s-Jvh-25" value="" style="rounded=0;whiteSpace=wrap;html=1;fontSize=14;strokeWidth=2;" vertex="1" parent="qg2XAIY1Ixtnio8s-Jvh-21">
          <mxGeometry y="13" width="40" height="10" as="geometry" />
        </mxCell>
        <mxCell id="qg2XAIY1Ixtnio8s-Jvh-26" style="edgeStyle=orthogonalEdgeStyle;rounded=0;orthogonalLoop=1;jettySize=auto;html=1;entryX=0;entryY=0.5;entryDx=0;entryDy=0;fontSize=14;endArrow=block;endFill=1;" edge="1" parent="bGlFaTIQ4-msruLbQkjW-1" source="qg2XAIY1Ixtnio8s-Jvh-17" target="qg2XAIY1Ixtnio8s-Jvh-20">
          <mxGeometry relative="1" as="geometry" />
        </mxCell>
        <mxCell id="qg2XAIY1Ixtnio8s-Jvh-27" value="" style="group" vertex="1" connectable="0" parent="bGlFaTIQ4-msruLbQkjW-1">
          <mxGeometry x="2600" y="160" width="280" height="80" as="geometry" />
        </mxCell>
        <mxCell id="qg2XAIY1Ixtnio8s-Jvh-28" value="&lt;span style=&quot;font-family: &amp;#34;helvetica neue light&amp;#34; ; font-weight: bold ; text-align: center&quot;&gt;catalog-order-created&lt;/span&gt;" style="rounded=1;whiteSpace=wrap;html=1;fontSize=14;align=left;spacingLeft=20;" vertex="1" parent="qg2XAIY1Ixtnio8s-Jvh-27">
          <mxGeometry width="280" height="80" as="geometry" />
        </mxCell>
        <mxCell id="qg2XAIY1Ixtnio8s-Jvh-29" value="" style="group" vertex="1" connectable="0" parent="qg2XAIY1Ixtnio8s-Jvh-27">
          <mxGeometry x="230" y="15" width="40" height="49" as="geometry" />
        </mxCell>
        <mxCell id="qg2XAIY1Ixtnio8s-Jvh-30" value="" style="rounded=0;whiteSpace=wrap;html=1;fontSize=14;strokeWidth=2;" vertex="1" parent="qg2XAIY1Ixtnio8s-Jvh-29">
          <mxGeometry width="40" height="10" as="geometry" />
        </mxCell>
        <mxCell id="qg2XAIY1Ixtnio8s-Jvh-31" value="" style="rounded=0;whiteSpace=wrap;html=1;fontSize=14;strokeWidth=2;" vertex="1" parent="qg2XAIY1Ixtnio8s-Jvh-29">
          <mxGeometry y="26" width="40" height="10" as="geometry" />
        </mxCell>
        <mxCell id="qg2XAIY1Ixtnio8s-Jvh-32" value="" style="rounded=0;whiteSpace=wrap;html=1;fontSize=14;strokeWidth=2;" vertex="1" parent="qg2XAIY1Ixtnio8s-Jvh-29">
          <mxGeometry y="39" width="40" height="10" as="geometry" />
        </mxCell>
        <mxCell id="qg2XAIY1Ixtnio8s-Jvh-33" value="" style="rounded=0;whiteSpace=wrap;html=1;fontSize=14;strokeWidth=2;" vertex="1" parent="qg2XAIY1Ixtnio8s-Jvh-29">
          <mxGeometry y="13" width="40" height="10" as="geometry" />
        </mxCell>
        <mxCell id="qg2XAIY1Ixtnio8s-Jvh-34" style="edgeStyle=orthogonalEdgeStyle;rounded=0;orthogonalLoop=1;jettySize=auto;html=1;entryX=0;entryY=0.5;entryDx=0;entryDy=0;fontSize=14;endArrow=block;endFill=1;" edge="1" parent="bGlFaTIQ4-msruLbQkjW-1" source="qg2XAIY1Ixtnio8s-Jvh-16" target="qg2XAIY1Ixtnio8s-Jvh-28">
          <mxGeometry relative="1" as="geometry" />
        </mxCell>
        <mxCell id="qg2XAIY1Ixtnio8s-Jvh-35" value="" style="group" vertex="1" connectable="0" parent="bGlFaTIQ4-msruLbQkjW-1">
          <mxGeometry x="2600" y="400" width="280" height="80" as="geometry" />
        </mxCell>
        <mxCell id="qg2XAIY1Ixtnio8s-Jvh-36" value="&lt;span style=&quot;font-family: &amp;#34;helvetica neue light&amp;#34; ; font-weight: bold ; text-align: center&quot;&gt;catalog-order-&lt;/span&gt;&lt;span style=&quot;font-family: &amp;#34;helvetica neue light&amp;#34; ; font-weight: bold ; text-align: center&quot;&gt;removed&lt;/span&gt;" style="rounded=1;whiteSpace=wrap;html=1;fontSize=14;align=left;spacingLeft=20;" vertex="1" parent="qg2XAIY1Ixtnio8s-Jvh-35">
          <mxGeometry width="280" height="80" as="geometry" />
        </mxCell>
        <mxCell id="qg2XAIY1Ixtnio8s-Jvh-37" value="" style="group" vertex="1" connectable="0" parent="qg2XAIY1Ixtnio8s-Jvh-35">
          <mxGeometry x="230" y="15" width="40" height="49" as="geometry" />
        </mxCell>
        <mxCell id="qg2XAIY1Ixtnio8s-Jvh-38" value="" style="rounded=0;whiteSpace=wrap;html=1;fontSize=14;strokeWidth=2;" vertex="1" parent="qg2XAIY1Ixtnio8s-Jvh-37">
          <mxGeometry width="40" height="10" as="geometry" />
        </mxCell>
        <mxCell id="qg2XAIY1Ixtnio8s-Jvh-39" value="" style="rounded=0;whiteSpace=wrap;html=1;fontSize=14;strokeWidth=2;" vertex="1" parent="qg2XAIY1Ixtnio8s-Jvh-37">
          <mxGeometry y="26" width="40" height="10" as="geometry" />
        </mxCell>
        <mxCell id="qg2XAIY1Ixtnio8s-Jvh-40" value="" style="rounded=0;whiteSpace=wrap;html=1;fontSize=14;strokeWidth=2;" vertex="1" parent="qg2XAIY1Ixtnio8s-Jvh-37">
          <mxGeometry y="39" width="40" height="10" as="geometry" />
        </mxCell>
        <mxCell id="qg2XAIY1Ixtnio8s-Jvh-41" value="" style="rounded=0;whiteSpace=wrap;html=1;fontSize=14;strokeWidth=2;" vertex="1" parent="qg2XAIY1Ixtnio8s-Jvh-37">
          <mxGeometry y="13" width="40" height="10" as="geometry" />
        </mxCell>
        <mxCell id="qg2XAIY1Ixtnio8s-Jvh-42" style="edgeStyle=orthogonalEdgeStyle;rounded=0;orthogonalLoop=1;jettySize=auto;html=1;entryX=0;entryY=0.5;entryDx=0;entryDy=0;fontSize=14;endArrow=block;endFill=1;" edge="1" parent="bGlFaTIQ4-msruLbQkjW-1" source="qg2XAIY1Ixtnio8s-Jvh-18" target="qg2XAIY1Ixtnio8s-Jvh-36">
          <mxGeometry relative="1" as="geometry" />
        </mxCell>
        <mxCell id="qg2XAIY1Ixtnio8s-Jvh-43" style="rounded=0;orthogonalLoop=1;jettySize=auto;html=1;exitX=0.5;exitY=0.875;exitDx=0;exitDy=0;entryX=0;entryY=0.5;entryDx=0;entryDy=0;fontSize=14;endArrow=block;endFill=1;exitPerimeter=0;" edge="1" parent="bGlFaTIQ4-msruLbQkjW-1" source="qg2XAIY1Ixtnio8s-Jvh-46" target="qg2XAIY1Ixtnio8s-Jvh-9">
          <mxGeometry relative="1" as="geometry" />
        </mxCell>
        <mxCell id="qg2XAIY1Ixtnio8s-Jvh-44" style="edgeStyle=none;rounded=0;orthogonalLoop=1;jettySize=auto;html=1;exitX=0.5;exitY=0.125;exitDx=0;exitDy=0;entryX=0;entryY=0.5;entryDx=0;entryDy=0;fontSize=14;endArrow=block;endFill=1;exitPerimeter=0;" edge="1" parent="bGlFaTIQ4-msruLbQkjW-1" source="qg2XAIY1Ixtnio8s-Jvh-46" target="qg2XAIY1Ixtnio8s-Jvh-7">
          <mxGeometry relative="1" as="geometry" />
        </mxCell>
        <mxCell id="qg2XAIY1Ixtnio8s-Jvh-45" style="edgeStyle=none;rounded=0;orthogonalLoop=1;jettySize=auto;html=1;entryX=0;entryY=0.5;entryDx=0;entryDy=0;fontSize=14;endArrow=block;endFill=1;" edge="1" parent="bGlFaTIQ4-msruLbQkjW-1" source="qg2XAIY1Ixtnio8s-Jvh-46" target="qg2XAIY1Ixtnio8s-Jvh-8">
          <mxGeometry relative="1" as="geometry" />
        </mxCell>
        <mxCell id="qg2XAIY1Ixtnio8s-Jvh-46" value="" style="rounded=0;whiteSpace=wrap;html=1;fontSize=14;strokeWidth=2;fillColor=#000000;" vertex="1" parent="bGlFaTIQ4-msruLbQkjW-1">
          <mxGeometry x="1335" y="160" width="10" height="320" as="geometry" />
        </mxCell>
        <mxCell id="qg2XAIY1Ixtnio8s-Jvh-47" style="edgeStyle=none;rounded=0;orthogonalLoop=1;jettySize=auto;html=1;entryX=0;entryY=0.5;entryDx=0;entryDy=0;fontSize=14;endArrow=block;endFill=1;exitX=1;exitY=0.5;exitDx=0;exitDy=0;" edge="1" parent="bGlFaTIQ4-msruLbQkjW-1" source="qg2XAIY1Ixtnio8s-Jvh-53" target="qg2XAIY1Ixtnio8s-Jvh-46">
          <mxGeometry relative="1" as="geometry" />
        </mxCell>
        <mxCell id="qg2XAIY1Ixtnio8s-Jvh-48" value="" style="rounded=0;whiteSpace=wrap;html=1;fontSize=14;strokeWidth=2;fillColor=#000000;" vertex="1" parent="bGlFaTIQ4-msruLbQkjW-1">
          <mxGeometry x="2935" y="160" width="10" height="320" as="geometry" />
        </mxCell>
        <mxCell id="qg2XAIY1Ixtnio8s-Jvh-49" style="edgeStyle=none;rounded=0;orthogonalLoop=1;jettySize=auto;html=1;entryX=-0.044;entryY=0.124;entryDx=0;entryDy=0;entryPerimeter=0;fontSize=20;endArrow=block;endFill=1;" edge="1" parent="bGlFaTIQ4-msruLbQkjW-1" source="qg2XAIY1Ixtnio8s-Jvh-28" target="qg2XAIY1Ixtnio8s-Jvh-48">
          <mxGeometry relative="1" as="geometry" />
        </mxCell>
        <mxCell id="qg2XAIY1Ixtnio8s-Jvh-50" style="edgeStyle=none;rounded=0;orthogonalLoop=1;jettySize=auto;html=1;entryX=0;entryY=0.5;entryDx=0;entryDy=0;fontSize=20;endArrow=block;endFill=1;" edge="1" parent="bGlFaTIQ4-msruLbQkjW-1" source="qg2XAIY1Ixtnio8s-Jvh-20" target="qg2XAIY1Ixtnio8s-Jvh-48">
          <mxGeometry relative="1" as="geometry" />
        </mxCell>
        <mxCell id="qg2XAIY1Ixtnio8s-Jvh-51" style="edgeStyle=none;rounded=0;orthogonalLoop=1;jettySize=auto;html=1;entryX=-0.058;entryY=0.875;entryDx=0;entryDy=0;entryPerimeter=0;fontSize=20;endArrow=block;endFill=1;" edge="1" parent="bGlFaTIQ4-msruLbQkjW-1" source="qg2XAIY1Ixtnio8s-Jvh-36" target="qg2XAIY1Ixtnio8s-Jvh-48">
          <mxGeometry relative="1" as="geometry" />
        </mxCell>
        <mxCell id="qg2XAIY1Ixtnio8s-Jvh-52" value="" style="group" vertex="1" connectable="0" parent="bGlFaTIQ4-msruLbQkjW-1">
          <mxGeometry x="960" y="280" width="320" height="80" as="geometry" />
        </mxCell>
        <mxCell id="qg2XAIY1Ixtnio8s-Jvh-53" value="Order.Service" style="rounded=1;whiteSpace=wrap;html=1;labelBackgroundColor=none;fontSize=25;fillColor=#b1ddf0;strokeColor=#10739e;align=left;spacingRight=0;spacingLeft=100;" vertex="1" parent="qg2XAIY1Ixtnio8s-Jvh-52">
          <mxGeometry width="320" height="80" as="geometry" />
        </mxCell>
        <mxCell id="qg2XAIY1Ixtnio8s-Jvh-54" value="" style="shape=hexagon;perimeter=hexagonPerimeter2;whiteSpace=wrap;html=1;fixedSize=1;labelBackgroundColor=none;fontSize=20;fontColor=#ffffff;fillColor=#60a917;strokeColor=#2D7600;" vertex="1" parent="qg2XAIY1Ixtnio8s-Jvh-52">
          <mxGeometry x="20" y="10" width="70" height="60" as="geometry" />
        </mxCell>
        <mxCell id="qg2XAIY1Ixtnio8s-Jvh-55" value="" style="group" vertex="1" connectable="0" parent="bGlFaTIQ4-msruLbQkjW-1">
          <mxGeometry x="3000" y="680" width="320" height="80" as="geometry" />
        </mxCell>
        <mxCell id="qg2XAIY1Ixtnio8s-Jvh-56" value="Customer.Service" style="rounded=1;whiteSpace=wrap;html=1;labelBackgroundColor=none;fontSize=25;fillColor=#b1ddf0;strokeColor=#10739e;align=left;spacingRight=0;spacingLeft=100;" vertex="1" parent="qg2XAIY1Ixtnio8s-Jvh-55">
          <mxGeometry width="320" height="80" as="geometry" />
        </mxCell>
        <mxCell id="qg2XAIY1Ixtnio8s-Jvh-57" value="" style="shape=hexagon;perimeter=hexagonPerimeter2;whiteSpace=wrap;html=1;fixedSize=1;labelBackgroundColor=none;fontSize=20;fontColor=#000000;fillColor=#f0a30a;strokeColor=#BD7000;" vertex="1" parent="qg2XAIY1Ixtnio8s-Jvh-55">
          <mxGeometry x="20" y="10" width="70" height="60" as="geometry" />
        </mxCell>
        <mxCell id="qg2XAIY1Ixtnio8s-Jvh-58" value="" style="group" vertex="1" connectable="0" parent="bGlFaTIQ4-msruLbQkjW-1">
          <mxGeometry x="2600" y="680" width="285" height="80" as="geometry" />
        </mxCell>
        <mxCell id="qg2XAIY1Ixtnio8s-Jvh-59" value="&lt;span style=&quot;font-family: &amp;#34;helvetica neue light&amp;#34; ; font-weight: bold ; text-align: center&quot;&gt;customer-order-&lt;/span&gt;&lt;span style=&quot;font-family: &amp;#34;helvetica neue light&amp;#34; ; font-weight: bold ; text-align: center&quot;&gt;updated&lt;/span&gt;" style="rounded=1;whiteSpace=wrap;html=1;fontSize=14;align=left;spacingLeft=20;" vertex="1" parent="qg2XAIY1Ixtnio8s-Jvh-58">
          <mxGeometry width="280" height="80" as="geometry" />
        </mxCell>
        <mxCell id="qg2XAIY1Ixtnio8s-Jvh-60" value="" style="group" vertex="1" connectable="0" parent="qg2XAIY1Ixtnio8s-Jvh-58">
          <mxGeometry x="230" y="15" width="55" height="54.5" as="geometry" />
        </mxCell>
        <mxCell id="qg2XAIY1Ixtnio8s-Jvh-61" value="" style="rounded=0;whiteSpace=wrap;html=1;fontSize=14;strokeWidth=2;" vertex="1" parent="qg2XAIY1Ixtnio8s-Jvh-60">
          <mxGeometry width="40" height="10" as="geometry" />
        </mxCell>
        <mxCell id="qg2XAIY1Ixtnio8s-Jvh-62" value="" style="rounded=0;whiteSpace=wrap;html=1;fontSize=14;strokeWidth=2;" vertex="1" parent="qg2XAIY1Ixtnio8s-Jvh-60">
          <mxGeometry y="26" width="40" height="10" as="geometry" />
        </mxCell>
        <mxCell id="qg2XAIY1Ixtnio8s-Jvh-63" value="" style="rounded=0;whiteSpace=wrap;html=1;fontSize=14;strokeWidth=2;" vertex="1" parent="qg2XAIY1Ixtnio8s-Jvh-60">
          <mxGeometry y="39" width="40" height="10" as="geometry" />
        </mxCell>
        <mxCell id="qg2XAIY1Ixtnio8s-Jvh-64" value="" style="rounded=0;whiteSpace=wrap;html=1;fontSize=14;strokeWidth=2;" vertex="1" parent="qg2XAIY1Ixtnio8s-Jvh-60">
          <mxGeometry y="13" width="40" height="10" as="geometry" />
        </mxCell>
        <mxCell id="qg2XAIY1Ixtnio8s-Jvh-65" value="" style="group" vertex="1" connectable="0" parent="bGlFaTIQ4-msruLbQkjW-1">
          <mxGeometry x="2600" y="560" width="280" height="80" as="geometry" />
        </mxCell>
        <mxCell id="qg2XAIY1Ixtnio8s-Jvh-66" value="&lt;span style=&quot;font-family: &amp;#34;helvetica neue light&amp;#34; ; font-weight: bold ; text-align: center&quot;&gt;customer-order-created&lt;/span&gt;" style="rounded=1;whiteSpace=wrap;html=1;fontSize=14;align=left;spacingLeft=20;" vertex="1" parent="qg2XAIY1Ixtnio8s-Jvh-65">
          <mxGeometry width="280" height="80" as="geometry" />
        </mxCell>
        <mxCell id="qg2XAIY1Ixtnio8s-Jvh-67" value="" style="group" vertex="1" connectable="0" parent="qg2XAIY1Ixtnio8s-Jvh-65">
          <mxGeometry x="230" y="15" width="40" height="49" as="geometry" />
        </mxCell>
        <mxCell id="qg2XAIY1Ixtnio8s-Jvh-68" value="" style="rounded=0;whiteSpace=wrap;html=1;fontSize=14;strokeWidth=2;" vertex="1" parent="qg2XAIY1Ixtnio8s-Jvh-67">
          <mxGeometry width="40" height="10" as="geometry" />
        </mxCell>
        <mxCell id="qg2XAIY1Ixtnio8s-Jvh-69" value="" style="rounded=0;whiteSpace=wrap;html=1;fontSize=14;strokeWidth=2;" vertex="1" parent="qg2XAIY1Ixtnio8s-Jvh-67">
          <mxGeometry y="26" width="40" height="10" as="geometry" />
        </mxCell>
        <mxCell id="qg2XAIY1Ixtnio8s-Jvh-70" value="" style="rounded=0;whiteSpace=wrap;html=1;fontSize=14;strokeWidth=2;" vertex="1" parent="qg2XAIY1Ixtnio8s-Jvh-67">
          <mxGeometry y="39" width="40" height="10" as="geometry" />
        </mxCell>
        <mxCell id="qg2XAIY1Ixtnio8s-Jvh-71" value="" style="rounded=0;whiteSpace=wrap;html=1;fontSize=14;strokeWidth=2;" vertex="1" parent="qg2XAIY1Ixtnio8s-Jvh-67">
          <mxGeometry y="13" width="40" height="10" as="geometry" />
        </mxCell>
        <mxCell id="qg2XAIY1Ixtnio8s-Jvh-72" value="" style="group" vertex="1" connectable="0" parent="bGlFaTIQ4-msruLbQkjW-1">
          <mxGeometry x="2600" y="800" width="280" height="80" as="geometry" />
        </mxCell>
        <mxCell id="qg2XAIY1Ixtnio8s-Jvh-73" value="&lt;span style=&quot;font-family: &amp;#34;helvetica neue light&amp;#34; ; font-weight: bold ; text-align: center&quot;&gt;customer-order-&lt;/span&gt;&lt;span style=&quot;font-family: &amp;#34;helvetica neue light&amp;#34; ; font-weight: bold ; text-align: center&quot;&gt;removed&lt;/span&gt;" style="rounded=1;whiteSpace=wrap;html=1;fontSize=14;align=left;spacingLeft=20;" vertex="1" parent="qg2XAIY1Ixtnio8s-Jvh-72">
          <mxGeometry width="280" height="80" as="geometry" />
        </mxCell>
        <mxCell id="qg2XAIY1Ixtnio8s-Jvh-74" value="" style="group" vertex="1" connectable="0" parent="qg2XAIY1Ixtnio8s-Jvh-72">
          <mxGeometry x="230" y="15" width="40" height="49" as="geometry" />
        </mxCell>
        <mxCell id="qg2XAIY1Ixtnio8s-Jvh-75" value="" style="rounded=0;whiteSpace=wrap;html=1;fontSize=14;strokeWidth=2;" vertex="1" parent="qg2XAIY1Ixtnio8s-Jvh-74">
          <mxGeometry width="40" height="10" as="geometry" />
        </mxCell>
        <mxCell id="qg2XAIY1Ixtnio8s-Jvh-76" value="" style="rounded=0;whiteSpace=wrap;html=1;fontSize=14;strokeWidth=2;" vertex="1" parent="qg2XAIY1Ixtnio8s-Jvh-74">
          <mxGeometry y="26" width="40" height="10" as="geometry" />
        </mxCell>
        <mxCell id="qg2XAIY1Ixtnio8s-Jvh-77" value="" style="rounded=0;whiteSpace=wrap;html=1;fontSize=14;strokeWidth=2;" vertex="1" parent="qg2XAIY1Ixtnio8s-Jvh-74">
          <mxGeometry y="39" width="40" height="10" as="geometry" />
        </mxCell>
        <mxCell id="qg2XAIY1Ixtnio8s-Jvh-78" value="" style="rounded=0;whiteSpace=wrap;html=1;fontSize=14;strokeWidth=2;" vertex="1" parent="qg2XAIY1Ixtnio8s-Jvh-74">
          <mxGeometry y="13" width="40" height="10" as="geometry" />
        </mxCell>
        <mxCell id="qg2XAIY1Ixtnio8s-Jvh-79" style="edgeStyle=none;rounded=0;orthogonalLoop=1;jettySize=auto;html=1;fontSize=20;endArrow=block;endFill=1;entryX=0;entryY=0.5;entryDx=0;entryDy=0;" edge="1" parent="bGlFaTIQ4-msruLbQkjW-1" source="qg2XAIY1Ixtnio8s-Jvh-80" target="qg2XAIY1Ixtnio8s-Jvh-56">
          <mxGeometry relative="1" as="geometry">
            <mxPoint x="2970" y="720" as="targetPoint" />
          </mxGeometry>
        </mxCell>
        <mxCell id="qg2XAIY1Ixtnio8s-Jvh-80" value="" style="rounded=0;whiteSpace=wrap;html=1;fontSize=14;strokeWidth=2;fillColor=#000000;" vertex="1" parent="bGlFaTIQ4-msruLbQkjW-1">
          <mxGeometry x="2935" y="560" width="10" height="320" as="geometry" />
        </mxCell>
        <mxCell id="qg2XAIY1Ixtnio8s-Jvh-81" style="edgeStyle=none;rounded=0;orthogonalLoop=1;jettySize=auto;html=1;entryX=-0.044;entryY=0.124;entryDx=0;entryDy=0;entryPerimeter=0;fontSize=20;endArrow=block;endFill=1;" edge="1" parent="bGlFaTIQ4-msruLbQkjW-1" source="qg2XAIY1Ixtnio8s-Jvh-66" target="qg2XAIY1Ixtnio8s-Jvh-80">
          <mxGeometry relative="1" as="geometry" />
        </mxCell>
        <mxCell id="qg2XAIY1Ixtnio8s-Jvh-82" style="edgeStyle=none;rounded=0;orthogonalLoop=1;jettySize=auto;html=1;entryX=0;entryY=0.5;entryDx=0;entryDy=0;fontSize=20;endArrow=block;endFill=1;" edge="1" parent="bGlFaTIQ4-msruLbQkjW-1" source="qg2XAIY1Ixtnio8s-Jvh-59" target="qg2XAIY1Ixtnio8s-Jvh-80">
          <mxGeometry relative="1" as="geometry" />
        </mxCell>
        <mxCell id="qg2XAIY1Ixtnio8s-Jvh-83" style="edgeStyle=none;rounded=0;orthogonalLoop=1;jettySize=auto;html=1;entryX=-0.058;entryY=0.875;entryDx=0;entryDy=0;entryPerimeter=0;fontSize=20;endArrow=block;endFill=1;" edge="1" parent="bGlFaTIQ4-msruLbQkjW-1" source="qg2XAIY1Ixtnio8s-Jvh-73" target="qg2XAIY1Ixtnio8s-Jvh-80">
          <mxGeometry relative="1" as="geometry" />
        </mxCell>
        <mxCell id="qg2XAIY1Ixtnio8s-Jvh-84" style="edgeStyle=none;rounded=0;orthogonalLoop=1;jettySize=auto;html=1;entryX=0;entryY=0.5;entryDx=0;entryDy=0;fontSize=20;endArrow=block;endFill=1;" edge="1" parent="bGlFaTIQ4-msruLbQkjW-1" source="qg2XAIY1Ixtnio8s-Jvh-85" target="qg2XAIY1Ixtnio8s-Jvh-73">
          <mxGeometry relative="1" as="geometry" />
        </mxCell>
        <mxCell id="qg2XAIY1Ixtnio8s-Jvh-85" value="&lt;span style=&quot;color: rgb(0 , 0 , 0) ; font-family: &amp;#34;helvetica neue light&amp;#34; ; font-size: 14px ; font-style: normal ; font-weight: bold ; letter-spacing: normal ; text-align: center ; text-indent: 0px ; text-transform: none ; word-spacing: 0px ; background-color: rgb(248 , 249 , 250) ; text-decoration: none ; display: inline ; float: none&quot;&gt;customer-order-removed&lt;/span&gt;" style="shape=hexagon;perimeter=hexagonPerimeter2;whiteSpace=wrap;html=1;fixedSize=1;fontSize=14;fontStyle=1" vertex="1" parent="bGlFaTIQ4-msruLbQkjW-1">
          <mxGeometry x="2240" y="800" width="240" height="80" as="geometry" />
        </mxCell>
        <mxCell id="qg2XAIY1Ixtnio8s-Jvh-86" style="edgeStyle=none;rounded=0;orthogonalLoop=1;jettySize=auto;html=1;entryX=0;entryY=0.5;entryDx=0;entryDy=0;fontSize=20;endArrow=block;endFill=1;" edge="1" parent="bGlFaTIQ4-msruLbQkjW-1" source="qg2XAIY1Ixtnio8s-Jvh-87" target="qg2XAIY1Ixtnio8s-Jvh-59">
          <mxGeometry relative="1" as="geometry" />
        </mxCell>
        <mxCell id="qg2XAIY1Ixtnio8s-Jvh-87" value="&lt;span style=&quot;color: rgb(0 , 0 , 0) ; font-family: &amp;#34;helvetica neue light&amp;#34; ; font-size: 14px ; font-style: normal ; font-weight: bold ; letter-spacing: normal ; text-align: center ; text-indent: 0px ; text-transform: none ; word-spacing: 0px ; background-color: rgb(248 , 249 , 250) ; text-decoration: none ; display: inline ; float: none&quot;&gt;customer-order-updated&lt;/span&gt;" style="shape=hexagon;perimeter=hexagonPerimeter2;whiteSpace=wrap;html=1;fixedSize=1;fontSize=14;fontStyle=1" vertex="1" parent="bGlFaTIQ4-msruLbQkjW-1">
          <mxGeometry x="2240" y="680" width="240" height="80" as="geometry" />
        </mxCell>
        <mxCell id="qg2XAIY1Ixtnio8s-Jvh-88" style="edgeStyle=none;rounded=0;orthogonalLoop=1;jettySize=auto;html=1;entryX=0;entryY=0.5;entryDx=0;entryDy=0;fontSize=20;endArrow=block;endFill=1;" edge="1" parent="bGlFaTIQ4-msruLbQkjW-1" source="qg2XAIY1Ixtnio8s-Jvh-89" target="qg2XAIY1Ixtnio8s-Jvh-66">
          <mxGeometry relative="1" as="geometry" />
        </mxCell>
        <mxCell id="qg2XAIY1Ixtnio8s-Jvh-89" value="&lt;span style=&quot;color: rgb(0, 0, 0); font-family: &amp;quot;helvetica neue light&amp;quot;; font-size: 14px; font-style: normal; font-weight: bold; letter-spacing: normal; text-align: center; text-indent: 0px; text-transform: none; word-spacing: 0px; background-color: rgb(248, 249, 250); text-decoration: none; display: inline; float: none;&quot;&gt;customer-order-created&lt;/span&gt;" style="shape=hexagon;perimeter=hexagonPerimeter2;whiteSpace=wrap;html=1;fixedSize=1;fontSize=14;fontStyle=1" vertex="1" parent="bGlFaTIQ4-msruLbQkjW-1">
          <mxGeometry x="2240" y="560" width="240" height="80" as="geometry" />
        </mxCell>
        <mxCell id="qg2XAIY1Ixtnio8s-Jvh-90" style="edgeStyle=orthogonalEdgeStyle;rounded=0;orthogonalLoop=1;jettySize=auto;html=1;entryX=0;entryY=0.5;entryDx=0;entryDy=0;fontSize=20;endArrow=block;endFill=1;" edge="1" parent="bGlFaTIQ4-msruLbQkjW-1" source="qg2XAIY1Ixtnio8s-Jvh-92" target="qg2XAIY1Ixtnio8s-Jvh-16">
          <mxGeometry relative="1" as="geometry" />
        </mxCell>
        <mxCell id="qg2XAIY1Ixtnio8s-Jvh-91" style="edgeStyle=orthogonalEdgeStyle;rounded=0;orthogonalLoop=1;jettySize=auto;html=1;entryX=0;entryY=0.5;entryDx=0;entryDy=0;fontSize=20;endArrow=block;endFill=1;" edge="1" parent="bGlFaTIQ4-msruLbQkjW-1" source="qg2XAIY1Ixtnio8s-Jvh-92" target="qg2XAIY1Ixtnio8s-Jvh-89">
          <mxGeometry relative="1" as="geometry">
            <Array as="points">
              <mxPoint x="2080" y="600" />
            </Array>
          </mxGeometry>
        </mxCell>
        <mxCell id="qg2XAIY1Ixtnio8s-Jvh-92" value="created" style="rhombus;whiteSpace=wrap;html=1;rounded=0;fontSize=10;strokeWidth=1;fillColor=#000000;verticalAlign=middle;spacingTop=-40;" vertex="1" parent="bGlFaTIQ4-msruLbQkjW-1">
          <mxGeometry x="2070" y="190" width="20" height="20" as="geometry" />
        </mxCell>
        <mxCell id="qg2XAIY1Ixtnio8s-Jvh-93" style="edgeStyle=none;rounded=0;orthogonalLoop=1;jettySize=auto;html=1;entryX=0;entryY=0.5;entryDx=0;entryDy=0;fontSize=20;endArrow=none;endFill=0;" edge="1" parent="bGlFaTIQ4-msruLbQkjW-1" source="qg2XAIY1Ixtnio8s-Jvh-10" target="qg2XAIY1Ixtnio8s-Jvh-92">
          <mxGeometry relative="1" as="geometry" />
        </mxCell>
        <mxCell id="qg2XAIY1Ixtnio8s-Jvh-94" style="edgeStyle=orthogonalEdgeStyle;rounded=0;orthogonalLoop=1;jettySize=auto;html=1;entryX=0;entryY=0.5;entryDx=0;entryDy=0;fontSize=20;endArrow=block;endFill=1;" edge="1" parent="bGlFaTIQ4-msruLbQkjW-1" source="qg2XAIY1Ixtnio8s-Jvh-96" target="qg2XAIY1Ixtnio8s-Jvh-17">
          <mxGeometry relative="1" as="geometry" />
        </mxCell>
        <mxCell id="qg2XAIY1Ixtnio8s-Jvh-95" style="edgeStyle=orthogonalEdgeStyle;rounded=0;orthogonalLoop=1;jettySize=auto;html=1;entryX=0;entryY=0.5;entryDx=0;entryDy=0;fontSize=20;endArrow=block;endFill=1;" edge="1" parent="bGlFaTIQ4-msruLbQkjW-1" source="qg2XAIY1Ixtnio8s-Jvh-96" target="qg2XAIY1Ixtnio8s-Jvh-87">
          <mxGeometry relative="1" as="geometry">
            <Array as="points">
              <mxPoint x="2120" y="720" />
            </Array>
          </mxGeometry>
        </mxCell>
        <mxCell id="qg2XAIY1Ixtnio8s-Jvh-96" value="updated" style="rhombus;whiteSpace=wrap;html=1;rounded=0;fontSize=10;strokeWidth=1;fillColor=#000000;spacingTop=-40;" vertex="1" parent="bGlFaTIQ4-msruLbQkjW-1">
          <mxGeometry x="2110" y="310" width="20" height="20" as="geometry" />
        </mxCell>
        <mxCell id="qg2XAIY1Ixtnio8s-Jvh-97" style="edgeStyle=orthogonalEdgeStyle;rounded=0;orthogonalLoop=1;jettySize=auto;html=1;entryX=0;entryY=0.5;entryDx=0;entryDy=0;fontSize=20;endArrow=block;endFill=1;" edge="1" parent="bGlFaTIQ4-msruLbQkjW-1" source="qg2XAIY1Ixtnio8s-Jvh-99" target="qg2XAIY1Ixtnio8s-Jvh-18">
          <mxGeometry relative="1" as="geometry" />
        </mxCell>
        <mxCell id="qg2XAIY1Ixtnio8s-Jvh-98" style="edgeStyle=orthogonalEdgeStyle;rounded=0;orthogonalLoop=1;jettySize=auto;html=1;entryX=0;entryY=0.5;entryDx=0;entryDy=0;fontSize=20;endArrow=block;endFill=1;" edge="1" parent="bGlFaTIQ4-msruLbQkjW-1" source="qg2XAIY1Ixtnio8s-Jvh-99" target="qg2XAIY1Ixtnio8s-Jvh-85">
          <mxGeometry relative="1" as="geometry">
            <Array as="points">
              <mxPoint x="2160" y="840" />
            </Array>
          </mxGeometry>
        </mxCell>
        <mxCell id="qg2XAIY1Ixtnio8s-Jvh-99" value="removed" style="rhombus;whiteSpace=wrap;html=1;rounded=0;fontSize=10;strokeWidth=1;fillColor=#000000;spacingTop=-40;" vertex="1" parent="bGlFaTIQ4-msruLbQkjW-1">
          <mxGeometry x="2150" y="430" width="20" height="20" as="geometry" />
        </mxCell>
        <mxCell id="qg2XAIY1Ixtnio8s-Jvh-100" value="" style="group" vertex="1" connectable="0" parent="bGlFaTIQ4-msruLbQkjW-1">
          <mxGeometry x="3000" y="280" width="320" height="80" as="geometry" />
        </mxCell>
        <mxCell id="qg2XAIY1Ixtnio8s-Jvh-101" value="Catalog.Service" style="rounded=1;whiteSpace=wrap;html=1;labelBackgroundColor=none;fontSize=25;fillColor=#b1ddf0;strokeColor=#10739e;align=left;spacingRight=0;spacingLeft=100;" vertex="1" parent="qg2XAIY1Ixtnio8s-Jvh-100">
          <mxGeometry width="320" height="80" as="geometry" />
        </mxCell>
        <mxCell id="qg2XAIY1Ixtnio8s-Jvh-102" value="" style="shape=hexagon;perimeter=hexagonPerimeter2;whiteSpace=wrap;html=1;fixedSize=1;labelBackgroundColor=none;fontSize=20;fontColor=#ffffff;fillColor=#e51400;strokeColor=#B20000;" vertex="1" parent="qg2XAIY1Ixtnio8s-Jvh-100">
          <mxGeometry x="20" y="10" width="70" height="60" as="geometry" />
        </mxCell>
        <mxCell id="qg2XAIY1Ixtnio8s-Jvh-103" style="edgeStyle=orthogonalEdgeStyle;rounded=0;orthogonalLoop=1;jettySize=auto;html=1;entryX=0;entryY=0.5;entryDx=0;entryDy=0;fontSize=20;endArrow=none;endFill=0;" edge="1" parent="bGlFaTIQ4-msruLbQkjW-1" source="qg2XAIY1Ixtnio8s-Jvh-12" target="qg2XAIY1Ixtnio8s-Jvh-96">
          <mxGeometry relative="1" as="geometry" />
        </mxCell>
        <mxCell id="qg2XAIY1Ixtnio8s-Jvh-104" style="edgeStyle=orthogonalEdgeStyle;rounded=0;orthogonalLoop=1;jettySize=auto;html=1;entryX=0;entryY=0.5;entryDx=0;entryDy=0;fontSize=20;endArrow=none;endFill=0;" edge="1" parent="bGlFaTIQ4-msruLbQkjW-1" source="qg2XAIY1Ixtnio8s-Jvh-14" target="qg2XAIY1Ixtnio8s-Jvh-99">
          <mxGeometry relative="1" as="geometry" />
        </mxCell>
        <mxCell id="qg2XAIY1Ixtnio8s-Jvh-105" style="edgeStyle=none;rounded=0;orthogonalLoop=1;jettySize=auto;html=1;fontSize=20;endArrow=block;endFill=1;entryX=0;entryY=0.5;entryDx=0;entryDy=0;" edge="1" parent="bGlFaTIQ4-msruLbQkjW-1" source="qg2XAIY1Ixtnio8s-Jvh-48" target="qg2XAIY1Ixtnio8s-Jvh-101">
          <mxGeometry relative="1" as="geometry">
            <mxPoint x="2990" y="320" as="targetPoint" />
          </mxGeometry>
        </mxCell>
      </root>
    </mxGraphModel>
  </diagram>
</mxfile>
